<svg id="Capa_1" data-name="Capa 1" xmlns="http://www.w3.org/2000/svg" viewBox="0 0 900 300"><defs><style>.cls-1{fill:#4a4a4a;}.cls-2{fill:#8cb3bf;}.cls-3{fill:#fff;}.cls-4{fill:#a3a3a3;}</style></defs><rect class="cls-1" width="900" height="300"/><rect class="cls-2" x="150.41" y="184.35" width="83.56" height="12.41"/><path class="cls-3" d="M248.06,106.31a9.27,9.27,0,0,0-2.6-2.47s-13.19-4.7-20.54-4.7c-11.2,0-19.58,4.37-28.91,9.91l-11.57,6.85a.14.14,0,0,1-.13,0l-40.57-7a3.25,3.25,0,0,0-1.92.25l-6.45,2.92a2,2,0,0,0-.05,3.7l26.84,13a.2.2,0,0,1,0,.34l-27.84,16.51-.42.25a24.1,24.1,0,0,1-17.36,2.63l-14.35-3.25a3.92,3.92,0,0,0-2.2.08,3.65,3.65,0,0,0-1.25,6.14l16.11,14.79A8.87,8.87,0,0,0,124.2,168l8-3.25,45.55-19.18,64.38-27.1C248.51,115.83,251,110.58,248.06,106.31Z"/><path class="cls-3" d="M189.91,146.23l-19.1,8L167.2,170a1.47,1.47,0,0,0,1.43,1.81l1.87,0a7.45,7.45,0,0,0,6.35-3.45Z"/><path class="cls-2" d="M318.89,123.93V95.86h11.93a20.53,20.53,0,0,1,6.54.76,6.43,6.43,0,0,1,3.26,2.69,8.05,8.05,0,0,1,1.23,4.42A7.48,7.48,0,0,1,340,109a8.9,8.9,0,0,1-5.55,2.59,13.38,13.38,0,0,1,3,2.36,31.65,31.65,0,0,1,3.23,4.56l3.43,5.47h-6.78l-4.1-6.11a38.32,38.32,0,0,0-3-4.12,4.27,4.27,0,0,0-1.7-1.17,9.32,9.32,0,0,0-2.85-.32h-1.15v11.72Zm5.67-16.2h4.19a21.66,21.66,0,0,0,5.09-.34,3,3,0,0,0,1.59-1.19,3.59,3.59,0,0,0,.58-2.1,3.33,3.33,0,0,0-.76-2.29,3.43,3.43,0,0,0-2.13-1.1c-.46-.07-1.84-.1-4.14-.1h-4.42Z"/><path class="cls-2" d="M358.93,117.46l5.36.9a8.82,8.82,0,0,1-3.27,4.49,9.58,9.58,0,0,1-5.58,1.54c-3.54,0-6.15-1.15-7.85-3.47a11.62,11.62,0,0,1-2-7q0-5.06,2.64-7.92a8.69,8.69,0,0,1,6.68-2.86,9,9,0,0,1,7.17,3c1.74,2,2.58,5,2.5,9.18H351.09A5.46,5.46,0,0,0,352.4,119a4.06,4.06,0,0,0,3.1,1.33,3.27,3.27,0,0,0,2.12-.69A4.27,4.27,0,0,0,358.93,117.46Zm.3-5.44a5.22,5.22,0,0,0-1.2-3.55,3.88,3.88,0,0,0-5.71.07,4.93,4.93,0,0,0-1.13,3.48Z"/><path class="cls-2" d="M367.06,118.13l5.4-.82a4,4,0,0,0,1.4,2.38,4.73,4.73,0,0,0,2.95.81,5.33,5.33,0,0,0,3.14-.76,1.73,1.73,0,0,0,.71-1.44,1.39,1.39,0,0,0-.39-1,4.16,4.16,0,0,0-1.8-.71q-6.51-1.44-8.25-2.62a5.25,5.25,0,0,1-2.41-4.58,5.65,5.65,0,0,1,2.09-4.44c1.39-1.2,3.54-1.8,6.47-1.8q4.17,0,6.2,1.36a6.93,6.93,0,0,1,2.8,4l-5.08.94a3.13,3.13,0,0,0-1.23-1.82,4.54,4.54,0,0,0-2.6-.63,5.8,5.8,0,0,0-3,.59,1.26,1.26,0,0,0-.61,1.09,1.21,1.21,0,0,0,.53,1,20.61,20.61,0,0,0,5,1.51,15.07,15.07,0,0,1,6,2.39,5,5,0,0,1,1.69,4,6.14,6.14,0,0,1-2.34,4.81q-2.34,2-6.91,2a11.39,11.39,0,0,1-6.58-1.68A7.82,7.82,0,0,1,367.06,118.13Z"/><path class="cls-2" d="M402.54,117.46l5.36.9a8.87,8.87,0,0,1-3.26,4.49,9.58,9.58,0,0,1-5.58,1.54c-3.54,0-6.16-1.15-7.85-3.47a11.62,11.62,0,0,1-2-7q0-5.06,2.64-7.92a8.69,8.69,0,0,1,6.68-2.86,9,9,0,0,1,7.16,3q2.63,3,2.51,9.18H394.71A5.45,5.45,0,0,0,396,119a4.07,4.07,0,0,0,3.1,1.33,3.3,3.3,0,0,0,2.13-.69A4.26,4.26,0,0,0,402.54,117.46Zm.31-5.44a5.18,5.18,0,0,0-1.21-3.55,3.86,3.86,0,0,0-5.7.07,4.89,4.89,0,0,0-1.13,3.48Z"/><path class="cls-2" d="M417.72,123.93h-5.38V103.6h5v2.89a8.56,8.56,0,0,1,2.31-2.7,4.27,4.27,0,0,1,2.32-.65,6.91,6.91,0,0,1,3.55,1l-1.67,4.69a4.79,4.79,0,0,0-2.53-.88,3,3,0,0,0-1.91.63,4.24,4.24,0,0,0-1.24,2.25,31.85,31.85,0,0,0-.45,6.81Z"/><path class="cls-2" d="M433.42,123.93l-8.19-20.33h5.65L434.71,114l1.11,3.46c.29-.88.48-1.46.55-1.74.18-.58.37-1.15.58-1.72l3.86-10.38h5.54l-8.08,20.33Z"/><path class="cls-2" d="M453.66,109.8l-4.88-.88a7.56,7.56,0,0,1,2.83-4.36,10.33,10.33,0,0,1,6-1.42A12.86,12.86,0,0,1,463,104a5.33,5.33,0,0,1,2.47,2.16,11.1,11.1,0,0,1,.72,4.82l-.05,6.28a22.14,22.14,0,0,0,.25,4,12,12,0,0,0,1,2.73H462c-.14-.36-.31-.89-.52-1.59-.09-.32-.15-.53-.19-.63a9.8,9.8,0,0,1-2.95,2,8.35,8.35,0,0,1-3.35.67,7,7,0,0,1-5-1.7,6.06,6.06,0,0,1-1-7.38,5.38,5.38,0,0,1,2.3-2.07,18.13,18.13,0,0,1,4.28-1.26,28.92,28.92,0,0,0,5.23-1.32v-.53a2.78,2.78,0,0,0-.77-2.21,4.57,4.57,0,0,0-2.89-.67,3.85,3.85,0,0,0-2.24.57A4,4,0,0,0,453.66,109.8Zm7.2,4.37c-.69.23-1.78.5-3.27.82a9.71,9.71,0,0,0-2.93.94,2.23,2.23,0,0,0-1.06,1.89,2.62,2.62,0,0,0,.85,2,3,3,0,0,0,2.14.82,4.66,4.66,0,0,0,2.78-1,3.33,3.33,0,0,0,1.28-1.78,10.62,10.62,0,0,0,.21-2.62Z"/><path class="cls-2" d="M501,123.93h-5v-3a8,8,0,0,1-2.94,2.6,7.51,7.51,0,0,1-3.41.85,7.76,7.76,0,0,1-6-2.82c-1.66-1.89-2.5-4.51-2.5-7.88s.81-6.07,2.44-7.86a7.9,7.9,0,0,1,6.14-2.69,7.62,7.62,0,0,1,5.9,2.83V95.86H501Zm-14.36-10.61a9.31,9.31,0,0,0,.9,4.71,4.06,4.06,0,0,0,3.64,2.11,4,4,0,0,0,3.16-1.58,7.34,7.34,0,0,0,1.3-4.72q0-3.51-1.27-5a4,4,0,0,0-3.23-1.55,4,4,0,0,0-3.21,1.53A6.87,6.87,0,0,0,486.63,113.32Z"/><path class="cls-2" d="M518.07,117.46l5.36.9a8.82,8.82,0,0,1-3.27,4.49,9.54,9.54,0,0,1-5.58,1.54c-3.53,0-6.15-1.15-7.85-3.47a11.62,11.62,0,0,1-2-7q0-5.06,2.64-7.92a8.71,8.71,0,0,1,6.69-2.86,9,9,0,0,1,7.16,3c1.75,2,2.58,5,2.51,9.18H510.24a5.41,5.41,0,0,0,1.3,3.72,4.06,4.06,0,0,0,3.1,1.33,3.32,3.32,0,0,0,2.13-.69A4.33,4.33,0,0,0,518.07,117.46Zm.3-5.44a5.17,5.17,0,0,0-1.2-3.55,3.88,3.88,0,0,0-5.71.07,5,5,0,0,0-1.13,3.48Z"/><path class="cls-2" d="M544.58,123.93l-8.19-20.33H542L545.87,114l1.11,3.46c.29-.88.48-1.46.55-1.74.18-.58.37-1.15.58-1.72L552,103.6h5.53l-8.08,20.33Z"/><path class="cls-2" d="M560.8,100.84v-5h5.38v5Zm0,23.09V103.6h5.38v20.33Z"/><path class="cls-2" d="M575.72,109.8l-4.89-.88a7.58,7.58,0,0,1,2.84-4.36,10.32,10.32,0,0,1,6-1.42A12.83,12.83,0,0,1,585,104a5.36,5.36,0,0,1,2.48,2.16,11.1,11.1,0,0,1,.72,4.82l-.06,6.28a21.93,21.93,0,0,0,.26,4,11.55,11.55,0,0,0,1,2.73H584q-.21-.54-.51-1.59c-.09-.32-.15-.53-.19-.63a9.92,9.92,0,0,1-3,2,8.42,8.42,0,0,1-3.35.67,6.93,6.93,0,0,1-4.95-1.7,5.67,5.67,0,0,1-1.81-4.31,5.76,5.76,0,0,1,.82-3.07,5.4,5.4,0,0,1,2.31-2.07,18,18,0,0,1,4.28-1.26,29.4,29.4,0,0,0,5.23-1.32v-.53a2.78,2.78,0,0,0-.77-2.21,4.57,4.57,0,0,0-2.89-.67,3.8,3.8,0,0,0-2.24.57A3.92,3.92,0,0,0,575.72,109.8Zm7.2,4.37c-.69.23-1.79.5-3.28.82a9.81,9.81,0,0,0-2.93.94,2.25,2.25,0,0,0-1.05,1.89,2.65,2.65,0,0,0,.84,2,3,3,0,0,0,2.15.82,4.63,4.63,0,0,0,2.77-1,3.33,3.33,0,0,0,1.28-1.78,10,10,0,0,0,.22-2.62Z"/><path class="cls-2" d="M598.77,103.6v19.7a20.25,20.25,0,0,1-.51,5.48,4.45,4.45,0,0,1-2,2.5,6.91,6.91,0,0,1-3.69.9,10.86,10.86,0,0,1-1.73-.14,20.18,20.18,0,0,1-2-.43l.94-4.6c.25,0,.49.1.71.13a4.83,4.83,0,0,0,.63,0,2.34,2.34,0,0,0,1.35-.36,1.72,1.72,0,0,0,.7-.85,14.41,14.41,0,0,0,.17-3V103.6Zm-5.38-2.76v-5h5.38v5Z"/><path class="cls-2" d="M616.17,117.46l5.36.9a8.81,8.81,0,0,1-3.26,4.49,9.58,9.58,0,0,1-5.58,1.54c-3.54,0-6.15-1.15-7.85-3.47a11.62,11.62,0,0,1-2-7q0-5.06,2.64-7.92a8.69,8.69,0,0,1,6.68-2.86,9,9,0,0,1,7.16,3q2.63,3,2.51,9.18H608.34a5.45,5.45,0,0,0,1.3,3.72,4.07,4.07,0,0,0,3.1,1.33,3.28,3.28,0,0,0,2.13-.69A4.26,4.26,0,0,0,616.17,117.46Zm.31-5.44a5.18,5.18,0,0,0-1.21-3.55,3.86,3.86,0,0,0-5.7.07,4.89,4.89,0,0,0-1.13,3.48Z"/><path class="cls-4" d="M328.43,144l2,.5a6.7,6.7,0,0,1-2.26,3.76,6.26,6.26,0,0,1-4,1.3,7.19,7.19,0,0,1-4-1,6.17,6.17,0,0,1-2.33-2.88,10.34,10.34,0,0,1-.8-4.05,8.91,8.91,0,0,1,.9-4.12,6.2,6.2,0,0,1,2.57-2.67,7.47,7.47,0,0,1,3.66-.91,6.19,6.19,0,0,1,3.82,1.15,6,6,0,0,1,2.15,3.25l-2,.46a4.63,4.63,0,0,0-1.52-2.4,4.1,4.1,0,0,0-2.52-.75,4.93,4.93,0,0,0-2.91.83,4.39,4.39,0,0,0-1.64,2.25,8.87,8.87,0,0,0-.48,2.9,9.31,9.31,0,0,0,.56,3.36,4.2,4.2,0,0,0,1.75,2.15,4.86,4.86,0,0,0,2.57.71,4.26,4.26,0,0,0,2.84-1A4.89,4.89,0,0,0,328.43,144Z"/><path class="cls-4" d="M332.64,149.27v-11h1.67V140a4.48,4.48,0,0,1,1.18-1.54,2.12,2.12,0,0,1,1.19-.37,3.64,3.64,0,0,1,1.91.6l-.64,1.72a2.66,2.66,0,0,0-1.36-.4,1.76,1.76,0,0,0-1.1.37,2,2,0,0,0-.69,1,7.43,7.43,0,0,0-.31,2.17v5.73Z"/><path class="cls-4" d="M347.18,145.74l1.92.24a4.66,4.66,0,0,1-1.68,2.61,5.68,5.68,0,0,1-6.94-.55,5.78,5.78,0,0,1-1.41-4.15,6.07,6.07,0,0,1,1.42-4.29,4.81,4.81,0,0,1,3.69-1.53,4.67,4.67,0,0,1,3.59,1.5,5.9,5.9,0,0,1,1.39,4.2c0,.11,0,.28,0,.5H341a4.22,4.22,0,0,0,1,2.76,3,3,0,0,0,2.29,1,2.82,2.82,0,0,0,1.74-.54A3.48,3.48,0,0,0,347.18,145.74Zm-6.09-3h6.11a3.65,3.65,0,0,0-.7-2.07,2.84,2.84,0,0,0-2.29-1.07,3,3,0,0,0-2.16.85A3.39,3.39,0,0,0,341.09,142.74Z"/><path class="cls-4" d="M358.58,147.92a7,7,0,0,1-2,1.23,5.74,5.74,0,0,1-2,.37,4,4,0,0,1-2.77-.89,2.91,2.91,0,0,1-1-2.25,3,3,0,0,1,.37-1.47,2.89,2.89,0,0,1,1-1.06,4.25,4.25,0,0,1,1.33-.61,13,13,0,0,1,1.65-.28,16.87,16.87,0,0,0,3.31-.64c0-.25,0-.42,0-.49a2,2,0,0,0-.52-1.59,3.12,3.12,0,0,0-2.12-.63,3.23,3.23,0,0,0-1.93.46,2.74,2.74,0,0,0-.92,1.62l-1.82-.25a4.58,4.58,0,0,1,.82-1.88,3.55,3.55,0,0,1,1.64-1.1,7.21,7.21,0,0,1,2.48-.39,6.59,6.59,0,0,1,2.28.33,3.1,3.1,0,0,1,1.29.83,3.06,3.06,0,0,1,.58,1.26,10.89,10.89,0,0,1,.09,1.72v2.47a25.86,25.86,0,0,0,.12,3.27,4,4,0,0,0,.47,1.32H359A3.94,3.94,0,0,1,358.58,147.92Zm-.16-4.15a13.12,13.12,0,0,1-3,.7,7.57,7.57,0,0,0-1.62.37,1.63,1.63,0,0,0-.73.61,1.64,1.64,0,0,0,.3,2.12,2.44,2.44,0,0,0,1.65.49,3.78,3.78,0,0,0,1.91-.47,2.9,2.9,0,0,0,1.22-1.28,4.49,4.49,0,0,0,.3-1.86Z"/><path class="cls-4" d="M376.22,149.27v-1.61a4,4,0,0,1-3.48,1.86,4.42,4.42,0,0,1-1.81-.38,2.84,2.84,0,0,1-1.24-.93,3.33,3.33,0,0,1-.58-1.38,10,10,0,0,1-.11-1.73v-6.78h1.85v6.07a10.27,10.27,0,0,0,.12,2,1.94,1.94,0,0,0,.74,1.15,2.3,2.3,0,0,0,1.4.42,3.12,3.12,0,0,0,1.57-.43,2.41,2.41,0,0,0,1-1.17,5.9,5.9,0,0,0,.3-2.14v-5.86h1.86v11Z"/><path class="cls-4" d="M380.78,149.27v-11h1.67v1.56a3.94,3.94,0,0,1,3.49-1.81,4.55,4.55,0,0,1,1.82.36,2.88,2.88,0,0,1,1.24.93,3.69,3.69,0,0,1,.58,1.37,10.71,10.71,0,0,1,.1,1.81v6.73h-1.86v-6.66a5.18,5.18,0,0,0-.21-1.7,1.79,1.79,0,0,0-.77-.89,2.39,2.39,0,0,0-1.29-.34,3,3,0,0,0-2.05.75,3.74,3.74,0,0,0-.86,2.86v6Z"/><path class="cls-4" d="M398.39,149.27v-11h1.67v1.56a3.94,3.94,0,0,1,3.49-1.81,4.55,4.55,0,0,1,1.82.36,2.88,2.88,0,0,1,1.24.93,3.69,3.69,0,0,1,.58,1.37,11.91,11.91,0,0,1,.1,1.81v6.73h-1.86v-6.66a5.18,5.18,0,0,0-.21-1.7,1.79,1.79,0,0,0-.77-.89,2.4,2.4,0,0,0-1.3-.34,3,3,0,0,0-2,.75,3.7,3.7,0,0,0-.86,2.86v6Z"/><path class="cls-4" d="M417.31,149.27v-1.61a4,4,0,0,1-3.47,1.86,4.38,4.38,0,0,1-1.81-.38,2.87,2.87,0,0,1-1.25-.93,3.46,3.46,0,0,1-.57-1.38,8.86,8.86,0,0,1-.12-1.73v-6.78H412v6.07a11.54,11.54,0,0,0,.11,2,2,2,0,0,0,.74,1.15,2.31,2.31,0,0,0,1.41.42,3.08,3.08,0,0,0,1.56-.43,2.36,2.36,0,0,0,1-1.17,5.9,5.9,0,0,0,.3-2.14v-5.86H419v11Z"/><path class="cls-4" d="M429.37,145.74l1.92.24a4.66,4.66,0,0,1-1.68,2.61,5.68,5.68,0,0,1-6.94-.55,5.78,5.78,0,0,1-1.41-4.15,6,6,0,0,1,1.42-4.29,4.81,4.81,0,0,1,3.69-1.53,4.67,4.67,0,0,1,3.59,1.5,5.9,5.9,0,0,1,1.39,4.2c0,.11,0,.28,0,.5h-8.16a4.12,4.12,0,0,0,1,2.76,3,3,0,0,0,2.28,1,2.83,2.83,0,0,0,1.75-.54A3.48,3.48,0,0,0,429.37,145.74Zm-6.09-3h6.11a3.65,3.65,0,0,0-.7-2.07,2.86,2.86,0,0,0-2.3-1.07,3,3,0,0,0-2.15.85A3.39,3.39,0,0,0,423.28,142.74Z"/><path class="cls-4" d="M436.66,149.27l-4.16-11h1.95l2.35,6.56c.26.7.49,1.44.71,2.2.16-.57.39-1.27.69-2.08l2.43-6.68h1.91l-4.15,11Z"/><path class="cls-4" d="M443.49,143.79a5.62,5.62,0,0,1,1.69-4.5,5.1,5.1,0,0,1,3.44-1.22,4.91,4.91,0,0,1,3.69,1.48,5.62,5.62,0,0,1,1.43,4.09,7.24,7.24,0,0,1-.63,3.32,4.42,4.42,0,0,1-1.85,1.88,5.32,5.32,0,0,1-2.64.68A5,5,0,0,1,444.9,148,5.91,5.91,0,0,1,443.49,143.79Zm1.9,0a4.65,4.65,0,0,0,.92,3.15,3.06,3.06,0,0,0,4.61,0,4.79,4.79,0,0,0,.92-3.21,4.52,4.52,0,0,0-.93-3.08,3.06,3.06,0,0,0-4.6,0A4.63,4.63,0,0,0,445.39,143.79Z"/><path class="cls-4" d="M464.83,149.27l-4.17-11h2l2.35,6.56c.25.7.49,1.44.7,2.2.17-.57.4-1.27.69-2.08l2.43-6.68h1.91l-4.14,11Z"/><path class="cls-4" d="M472.35,136.29v-2.14h1.86v2.14Zm0,13v-11h1.86v11Z"/><path class="cls-4" d="M484.18,147.92a7,7,0,0,1-2,1.23,5.74,5.74,0,0,1-2.05.37,4,4,0,0,1-2.77-.89,2.91,2.91,0,0,1-1-2.25,3,3,0,0,1,.37-1.47,2.89,2.89,0,0,1,1-1.06,4.25,4.25,0,0,1,1.33-.61,13,13,0,0,1,1.65-.28,16.87,16.87,0,0,0,3.31-.64c0-.25,0-.42,0-.49a2,2,0,0,0-.52-1.59,3.12,3.12,0,0,0-2.12-.63,3.25,3.25,0,0,0-1.93.46,2.74,2.74,0,0,0-.92,1.62l-1.82-.25a4.58,4.58,0,0,1,.82-1.88,3.55,3.55,0,0,1,1.64-1.1,7.21,7.21,0,0,1,2.48-.39,6.59,6.59,0,0,1,2.28.33,3.1,3.1,0,0,1,1.29.83,3.06,3.06,0,0,1,.58,1.26,10.89,10.89,0,0,1,.09,1.72v2.47A25.86,25.86,0,0,0,486,148a4,4,0,0,0,.47,1.32h-1.94A3.94,3.94,0,0,1,484.18,147.92Zm-.16-4.15a13.12,13.12,0,0,1-3,.7,7.57,7.57,0,0,0-1.62.37,1.63,1.63,0,0,0-.73.61,1.64,1.64,0,0,0,.3,2.12,2.44,2.44,0,0,0,1.65.49,3.78,3.78,0,0,0,1.91-.47,2.9,2.9,0,0,0,1.22-1.28,4.49,4.49,0,0,0,.3-1.86Z"/><path class="cls-4" d="M486.41,153.52l.35-1.58a4.17,4.17,0,0,0,.88.14,1,1,0,0,0,.85-.37,4,4,0,0,0,.27-1.89v-11.5h1.86v11.55a5.54,5.54,0,0,1-.52,2.81,2.45,2.45,0,0,1-2.23,1A5.47,5.47,0,0,1,486.41,153.52Zm2.35-17.21v-2.16h1.86v2.16Z"/><path class="cls-4" d="M501,145.74l1.92.24a4.66,4.66,0,0,1-1.68,2.61,5.68,5.68,0,0,1-6.94-.55,5.78,5.78,0,0,1-1.41-4.15,6,6,0,0,1,1.42-4.29,4.81,4.81,0,0,1,3.69-1.53,4.69,4.69,0,0,1,3.59,1.5,5.9,5.9,0,0,1,1.39,4.2c0,.11,0,.28,0,.5h-8.17a4.17,4.17,0,0,0,1,2.76,3,3,0,0,0,2.28,1,2.83,2.83,0,0,0,1.75-.54A3.48,3.48,0,0,0,501,145.74Zm-6.09-3H501a3.65,3.65,0,0,0-.7-2.07,2.86,2.86,0,0,0-2.3-1.07,3,3,0,0,0-2.15.85A3.39,3.39,0,0,0,494.87,142.74Z"/><path class="cls-4" d="M511.09,136.29v-2.14h1.85v2.14Zm0,13v-11h1.85v11Z"/><path class="cls-4" d="M515.77,149.27v-11h1.67v1.56a3.91,3.91,0,0,1,3.48-1.81,4.51,4.51,0,0,1,1.82.36,2.82,2.82,0,0,1,1.24.93,3.53,3.53,0,0,1,.58,1.37,10.71,10.71,0,0,1,.1,1.81v6.73h-1.85v-6.66a4.88,4.88,0,0,0-.22-1.7,1.75,1.75,0,0,0-.77-.89,2.37,2.37,0,0,0-1.29-.34,3,3,0,0,0-2,.75,3.74,3.74,0,0,0-.86,2.86v6Z"/><path class="cls-4" d="M527.17,150.18l1.8.26a1.74,1.74,0,0,0,.63,1.22,3.12,3.12,0,0,0,1.89.52,3.34,3.34,0,0,0,2-.52,2.53,2.53,0,0,0,.95-1.44,12.33,12.33,0,0,0,.13-2.39,3.81,3.81,0,0,1-3,1.44,4.15,4.15,0,0,1-3.5-1.63,6.31,6.31,0,0,1-1.23-3.91,7.41,7.41,0,0,1,.56-2.89,4.57,4.57,0,0,1,1.65-2.05,4.45,4.45,0,0,1,2.53-.72,3.93,3.93,0,0,1,3.2,1.57v-1.32h1.71v9.46a9.12,9.12,0,0,1-.52,3.63,3.82,3.82,0,0,1-1.65,1.68,5.77,5.77,0,0,1-2.78.62,5.24,5.24,0,0,1-3.17-.88A3,3,0,0,1,527.17,150.18Zm1.54-6.58a4.75,4.75,0,0,0,.85,3.14,2.73,2.73,0,0,0,2.15,1,2.76,2.76,0,0,0,2.14-1,4.6,4.6,0,0,0,.87-3.09,4.46,4.46,0,0,0-.9-3,2.75,2.75,0,0,0-2.15-1,2.68,2.68,0,0,0-2.1,1A4.46,4.46,0,0,0,528.71,143.6Z"/><path class="cls-4" d="M539.23,149.27v-11h1.67V140a4.61,4.61,0,0,1,1.18-1.54,2.12,2.12,0,0,1,1.19-.37,3.62,3.62,0,0,1,1.91.6l-.64,1.72a2.63,2.63,0,0,0-1.36-.4,1.71,1.71,0,0,0-1.09.37,1.88,1.88,0,0,0-.69,1,7.11,7.11,0,0,0-.31,2.17v5.73Z"/><path class="cls-4" d="M553.78,145.74l1.92.24a4.73,4.73,0,0,1-1.69,2.61,5.68,5.68,0,0,1-6.94-.55,5.78,5.78,0,0,1-1.4-4.15,6,6,0,0,1,1.42-4.29,4.81,4.81,0,0,1,3.69-1.53,4.69,4.69,0,0,1,3.59,1.5,5.94,5.94,0,0,1,1.39,4.2c0,.11,0,.28,0,.5h-8.17a4.22,4.22,0,0,0,1,2.76,3,3,0,0,0,2.29,1,2.82,2.82,0,0,0,1.74-.54A3.49,3.49,0,0,0,553.78,145.74Zm-6.09-3h6.11a3.72,3.72,0,0,0-.7-2.07,2.86,2.86,0,0,0-2.3-1.07,3,3,0,0,0-2.15.85A3.39,3.39,0,0,0,547.69,142.74Z"/><path class="cls-4" d="M557.28,146l1.84-.29a2.54,2.54,0,0,0,.86,1.69,3,3,0,0,0,2,.59,2.87,2.87,0,0,0,1.9-.52,1.58,1.58,0,0,0,.62-1.22,1.12,1.12,0,0,0-.55-1,7.45,7.45,0,0,0-1.89-.63,16.92,16.92,0,0,1-2.83-.89,2.73,2.73,0,0,1-1.2-1,2.81,2.81,0,0,1-.41-1.47,2.77,2.77,0,0,1,.34-1.36,3,3,0,0,1,.91-1,4,4,0,0,1,1.18-.54,5.89,5.89,0,0,1,1.6-.22,6.55,6.55,0,0,1,2.27.37,3.1,3.1,0,0,1,1.43,1,3.83,3.83,0,0,1,.64,1.69l-1.81.25a2,2,0,0,0-.72-1.32,2.63,2.63,0,0,0-1.67-.47,3.06,3.06,0,0,0-1.83.42,1.23,1.23,0,0,0-.54,1,1,1,0,0,0,.22.65,1.63,1.63,0,0,0,.71.49c.19.07.74.23,1.64.48a23.1,23.1,0,0,1,2.75.86,2.76,2.76,0,0,1,1.22,1,2.71,2.71,0,0,1,.45,1.59,3.07,3.07,0,0,1-.55,1.75,3.48,3.48,0,0,1-1.56,1.27,5.67,5.67,0,0,1-2.31.45,5.16,5.16,0,0,1-3.25-.89A4.13,4.13,0,0,1,557.28,146Z"/><path class="cls-4" d="M575.73,147.92a7,7,0,0,1-2,1.23,5.73,5.73,0,0,1-2,.37,4,4,0,0,1-2.78-.89,2.91,2.91,0,0,1-1-2.25,3.08,3.08,0,0,1,.37-1.47,2.89,2.89,0,0,1,1-1.06,4.25,4.25,0,0,1,1.33-.61,13,13,0,0,1,1.65-.28,16.87,16.87,0,0,0,3.31-.64c0-.25,0-.42,0-.49a2,2,0,0,0-.52-1.59,3.12,3.12,0,0,0-2.12-.63,3.25,3.25,0,0,0-1.93.46,2.74,2.74,0,0,0-.92,1.62l-1.82-.25a4.58,4.58,0,0,1,.82-1.88,3.55,3.55,0,0,1,1.64-1.1,7.21,7.21,0,0,1,2.48-.39,6.59,6.59,0,0,1,2.28.33,3.1,3.1,0,0,1,1.29.83,3.06,3.06,0,0,1,.58,1.26,10.89,10.89,0,0,1,.09,1.72v2.47a25.86,25.86,0,0,0,.12,3.27,4,4,0,0,0,.47,1.32H576.1A3.94,3.94,0,0,1,575.73,147.92Zm-.16-4.15a13.12,13.12,0,0,1-3,.7,7.57,7.57,0,0,0-1.62.37,1.63,1.63,0,0,0-.73.61,1.64,1.64,0,0,0,.3,2.12,2.44,2.44,0,0,0,1.65.49,3.78,3.78,0,0,0,1.91-.47,2.9,2.9,0,0,0,1.22-1.28,4.49,4.49,0,0,0,.3-1.86Z"/><path class="cls-4" d="M580.33,149.27v-11H582v1.56a3.94,3.94,0,0,1,3.49-1.81,4.51,4.51,0,0,1,1.82.36,2.82,2.82,0,0,1,1.24.93,3.53,3.53,0,0,1,.58,1.37,10.71,10.71,0,0,1,.1,1.81v6.73h-1.85v-6.66a5.13,5.13,0,0,0-.22-1.7,1.75,1.75,0,0,0-.77-.89,2.39,2.39,0,0,0-1.29-.34,3,3,0,0,0-2.05.75,3.74,3.74,0,0,0-.86,2.86v6Z"/><path class="cls-4" d="M599.17,149.27v-1.38a3.41,3.41,0,0,1-3.06,1.63,4.32,4.32,0,0,1-2.41-.73,4.74,4.74,0,0,1-1.7-2,7,7,0,0,1-.6-3,7.85,7.85,0,0,1,.54-3,4.28,4.28,0,0,1,4.09-2.76,3.63,3.63,0,0,1,1.76.42,3.71,3.71,0,0,1,1.26,1.09v-5.43h1.84v15.12Zm-5.86-5.47a4.77,4.77,0,0,0,.88,3.15,2.68,2.68,0,0,0,2.09,1,2.61,2.61,0,0,0,2.07-1,4.6,4.6,0,0,0,.85-3,5.19,5.19,0,0,0-.86-3.3,2.67,2.67,0,0,0-2.14-1,2.54,2.54,0,0,0-2.06,1A4.92,4.92,0,0,0,593.31,143.8Z"/><path class="cls-4" d="M603.12,143.79a5.62,5.62,0,0,1,1.69-4.5,5.1,5.1,0,0,1,3.44-1.22,4.92,4.92,0,0,1,3.7,1.48,5.66,5.66,0,0,1,1.43,4.09,7.1,7.1,0,0,1-.64,3.32,4.39,4.39,0,0,1-1.84,1.88,5.36,5.36,0,0,1-2.65.68,4.92,4.92,0,0,1-3.71-1.48A5.87,5.87,0,0,1,603.12,143.79Zm1.91,0a4.59,4.59,0,0,0,.92,3.15,3,3,0,0,0,4.6,0,4.79,4.79,0,0,0,.92-3.21,4.57,4.57,0,0,0-.92-3.08,3.06,3.06,0,0,0-4.6,0A4.58,4.58,0,0,0,605,143.79Z"/><path class="cls-4" d="M621.38,149.27V134.15h1.85v15.12Z"/><path class="cls-4" d="M625.42,143.79a5.62,5.62,0,0,1,1.69-4.5,5.1,5.1,0,0,1,3.44-1.22,4.92,4.92,0,0,1,3.7,1.48,5.66,5.66,0,0,1,1.43,4.09A7.1,7.1,0,0,1,635,147a4.39,4.39,0,0,1-1.84,1.88,5.36,5.36,0,0,1-2.65.68,4.92,4.92,0,0,1-3.71-1.48A5.87,5.87,0,0,1,625.42,143.79Zm1.91,0a4.59,4.59,0,0,0,.92,3.15,3,3,0,0,0,4.6,0,4.79,4.79,0,0,0,.92-3.21,4.57,4.57,0,0,0-.92-3.08,3.06,3.06,0,0,0-4.6,0A4.58,4.58,0,0,0,627.33,143.79Z"/><path class="cls-4" d="M637.11,146l1.84-.29a2.54,2.54,0,0,0,.86,1.69,3,3,0,0,0,2,.59,2.89,2.89,0,0,0,1.9-.52,1.58,1.58,0,0,0,.62-1.22,1.14,1.14,0,0,0-.55-1,7.58,7.58,0,0,0-1.9-.63,17.24,17.24,0,0,1-2.83-.89,2.76,2.76,0,0,1-1.19-1,2.81,2.81,0,0,1-.41-1.47,2.77,2.77,0,0,1,.34-1.36,3,3,0,0,1,.91-1,4,4,0,0,1,1.18-.54,5.89,5.89,0,0,1,1.6-.22,6.55,6.55,0,0,1,2.27.37,3.15,3.15,0,0,1,1.43,1,3.83,3.83,0,0,1,.64,1.69l-1.81.25a2,2,0,0,0-.72-1.32,2.63,2.63,0,0,0-1.67-.47,3.06,3.06,0,0,0-1.83.42,1.23,1.23,0,0,0-.54,1,1,1,0,0,0,.22.65,1.63,1.63,0,0,0,.71.49c.19.07.73.23,1.64.48a23.74,23.74,0,0,1,2.75.86,2.76,2.76,0,0,1,1.22,1,2.71,2.71,0,0,1,.44,1.59,3.13,3.13,0,0,1-.54,1.75,3.48,3.48,0,0,1-1.56,1.27,5.67,5.67,0,0,1-2.31.45,5.16,5.16,0,0,1-3.25-.89A4.13,4.13,0,0,1,637.11,146Z"/><path class="cls-4" d="M661.38,149.27v-1.38a3.42,3.42,0,0,1-3.06,1.63,4.3,4.3,0,0,1-2.41-.73,4.74,4.74,0,0,1-1.7-2,7,7,0,0,1-.6-3,7.85,7.85,0,0,1,.54-3,4.28,4.28,0,0,1,4.09-2.76,3.63,3.63,0,0,1,1.76.42,3.8,3.8,0,0,1,1.26,1.09v-5.43h1.84v15.12Zm-5.87-5.47a4.77,4.77,0,0,0,.89,3.15,2.68,2.68,0,0,0,2.09,1,2.64,2.64,0,0,0,2.07-1,4.6,4.6,0,0,0,.85-3,5.19,5.19,0,0,0-.86-3.3,2.67,2.67,0,0,0-2.14-1,2.57,2.57,0,0,0-2.07,1A5,5,0,0,0,655.51,143.8Z"/><path class="cls-4" d="M673.51,145.74l1.92.24a4.66,4.66,0,0,1-1.68,2.61,5.68,5.68,0,0,1-6.94-.55,5.78,5.78,0,0,1-1.41-4.15,6,6,0,0,1,1.42-4.29,4.82,4.82,0,0,1,3.7-1.53,4.67,4.67,0,0,1,3.58,1.5,5.9,5.9,0,0,1,1.39,4.2c0,.11,0,.28,0,.5h-8.16a4.22,4.22,0,0,0,1,2.76,3,3,0,0,0,2.29,1,2.82,2.82,0,0,0,1.74-.54A3.48,3.48,0,0,0,673.51,145.74Zm-6.09-3h6.12a3.72,3.72,0,0,0-.71-2.07,2.85,2.85,0,0,0-2.3-1.07,2.93,2.93,0,0,0-2.14.85A3.4,3.4,0,0,0,667.42,142.74Z"/><path class="cls-4" d="M681.81,147.61l.27,1.64a6.83,6.83,0,0,1-1.4.16,3.12,3.12,0,0,1-1.57-.32,1.75,1.75,0,0,1-.78-.84,6.63,6.63,0,0,1-.23-2.19v-6.3h-1.36v-1.44h1.36v-2.71l1.85-1.12v3.83h1.86v1.44H680v6.4a3.18,3.18,0,0,0,.1,1,.74.74,0,0,0,.32.36,1.18,1.18,0,0,0,.63.13A5.52,5.52,0,0,0,681.81,147.61Z"/><path class="cls-4" d="M690.77,147.92a6.92,6.92,0,0,1-2,1.23,5.78,5.78,0,0,1-2,.37,4,4,0,0,1-2.77-.89,2.87,2.87,0,0,1-1-2.25,3.07,3.07,0,0,1,1.32-2.53,4.31,4.31,0,0,1,1.34-.61,12.37,12.37,0,0,1,1.65-.28,16.87,16.87,0,0,0,3.31-.64c0-.25,0-.42,0-.49a2,2,0,0,0-.53-1.59,3.09,3.09,0,0,0-2.11-.63,3.23,3.23,0,0,0-1.93.46,2.75,2.75,0,0,0-.93,1.62l-1.81-.25a4.58,4.58,0,0,1,.81-1.88,3.6,3.6,0,0,1,1.64-1.1,7.31,7.31,0,0,1,2.49-.39,6.63,6.63,0,0,1,2.28.33,3,3,0,0,1,1.28.83,2.93,2.93,0,0,1,.58,1.26,10.89,10.89,0,0,1,.09,1.72v2.47a25.86,25.86,0,0,0,.12,3.27,4.26,4.26,0,0,0,.47,1.32h-1.94A4.18,4.18,0,0,1,690.77,147.92Zm-.15-4.15a13.38,13.38,0,0,1-3,.7,7.27,7.27,0,0,0-1.62.37,1.58,1.58,0,0,0-.73.61,1.52,1.52,0,0,0-.26.88,1.61,1.61,0,0,0,.56,1.24,2.43,2.43,0,0,0,1.65.49,3.72,3.72,0,0,0,1.9-.47,2.87,2.87,0,0,0,1.23-1.28,4.49,4.49,0,0,0,.3-1.86Z"/><path class="cls-4" d="M695.33,149.27V134.15h1.86v15.12Z"/><path class="cls-4" d="M700,149.27V134.15h1.86v15.12Z"/><path class="cls-4" d="M712.25,145.74l1.92.24a4.77,4.77,0,0,1-1.68,2.61,5.7,5.7,0,0,1-7-.55,5.78,5.78,0,0,1-1.4-4.15,6,6,0,0,1,1.42-4.29,4.81,4.81,0,0,1,3.69-1.53,4.69,4.69,0,0,1,3.59,1.5,5.94,5.94,0,0,1,1.39,4.2c0,.11,0,.28,0,.5h-8.17a4.22,4.22,0,0,0,1,2.76,3.06,3.06,0,0,0,2.29,1,2.82,2.82,0,0,0,1.74-.54A3.42,3.42,0,0,0,712.25,145.74Zm-6.09-3h6.11a3.72,3.72,0,0,0-.7-2.07,2.86,2.86,0,0,0-2.3-1.07,3,3,0,0,0-2.15.85A3.39,3.39,0,0,0,706.16,142.74Z"/><path class="cls-4" d="M715.76,146l1.83-.29a2.54,2.54,0,0,0,.86,1.69,3,3,0,0,0,2,.59,2.87,2.87,0,0,0,1.9-.52,1.58,1.58,0,0,0,.62-1.22,1.12,1.12,0,0,0-.55-1,7.45,7.45,0,0,0-1.89-.63,16.92,16.92,0,0,1-2.83-.89,2.73,2.73,0,0,1-1.2-1,2.81,2.81,0,0,1-.41-1.47,2.89,2.89,0,0,1,.34-1.36,3.13,3.13,0,0,1,.91-1,4,4,0,0,1,1.18-.54,5.89,5.89,0,0,1,1.6-.22,6.55,6.55,0,0,1,2.27.37,3.13,3.13,0,0,1,1.44,1,4,4,0,0,1,.63,1.69l-1.81.25a2,2,0,0,0-.72-1.32,2.63,2.63,0,0,0-1.67-.47,3.08,3.08,0,0,0-1.83.42,1.23,1.23,0,0,0-.54,1,1,1,0,0,0,.22.65,1.66,1.66,0,0,0,.72.49c.18.07.73.23,1.63.48a23.1,23.1,0,0,1,2.75.86,2.76,2.76,0,0,1,1.22,1,2.71,2.71,0,0,1,.45,1.59,3.13,3.13,0,0,1-.54,1.75,3.45,3.45,0,0,1-1.57,1.27,5.67,5.67,0,0,1-2.31.45,5.16,5.16,0,0,1-3.25-.89A4.12,4.12,0,0,1,715.76,146Z"/><path class="cls-4" d="M317.41,178.8V163.66h1.69v1.42a4.06,4.06,0,0,1,1.35-1.25,3.7,3.7,0,0,1,1.83-.42,4.27,4.27,0,0,1,4.09,2.76,7.46,7.46,0,0,1,.55,2.88,7.15,7.15,0,0,1-.61,3,4.55,4.55,0,0,1-4.17,2.78,3.48,3.48,0,0,1-1.66-.39,3.7,3.7,0,0,1-1.21-1v5.33Zm1.68-9.61a4.79,4.79,0,0,0,.86,3.13,2.63,2.63,0,0,0,2.07,1,2.69,2.69,0,0,0,2.12-1.05A5,5,0,0,0,325,169a4.88,4.88,0,0,0-.86-3.14,2.61,2.61,0,0,0-2.06-1A2.68,2.68,0,0,0,320,166,5,5,0,0,0,319.09,169.19Z"/><path class="cls-4" d="M329.13,174.6V163.66h1.67v1.66a4.61,4.61,0,0,1,1.18-1.54,2,2,0,0,1,1.19-.37,3.62,3.62,0,0,1,1.91.6l-.64,1.72a2.63,2.63,0,0,0-1.36-.4,1.78,1.78,0,0,0-1.09.36,2,2,0,0,0-.69,1,7.09,7.09,0,0,0-.31,2.16v5.73Z"/><path class="cls-4" d="M336.19,161.62v-2.13h1.86v2.13Zm0,13V163.66h1.86V174.6Z"/><path class="cls-4" d="M340.87,174.6V163.66h1.67v1.55a4,4,0,0,1,3.49-1.8,4.69,4.69,0,0,1,1.82.35,2.84,2.84,0,0,1,1.24.94,3.47,3.47,0,0,1,.58,1.37,10.49,10.49,0,0,1,.1,1.8v6.73h-1.85v-6.66a5.06,5.06,0,0,0-.22-1.69,1.77,1.77,0,0,0-.77-.9,2.48,2.48,0,0,0-1.29-.33,3,3,0,0,0-2.05.75,3.72,3.72,0,0,0-.86,2.86v6Z"/><path class="cls-4" d="M359.76,170.59l1.83.24a4.72,4.72,0,0,1-1.53,2.95,4.44,4.44,0,0,1-3,1.07,4.69,4.69,0,0,1-3.61-1.47,6,6,0,0,1-1.37-4.21,7.65,7.65,0,0,1,.59-3.1,4.12,4.12,0,0,1,1.79-2,5.33,5.33,0,0,1,2.61-.66,4.56,4.56,0,0,1,2.92.9,4.16,4.16,0,0,1,1.45,2.56l-1.8.28a3,3,0,0,0-.92-1.66,2.35,2.35,0,0,0-1.58-.56,2.9,2.9,0,0,0-2.28,1,4.8,4.8,0,0,0-.87,3.18,5,5,0,0,0,.84,3.21,2.78,2.78,0,0,0,2.21,1,2.6,2.6,0,0,0,1.82-.67A3.34,3.34,0,0,0,359.76,170.59Z"/><path class="cls-4" d="M363.18,161.62v-2.13H365v2.13Zm0,13V163.66H365V174.6Z"/><path class="cls-4" d="M367.86,178.8V163.66h1.7v1.42a3.88,3.88,0,0,1,1.35-1.25,3.68,3.68,0,0,1,1.82-.42,4.35,4.35,0,0,1,2.48.72,4.4,4.4,0,0,1,1.61,2,7.86,7.86,0,0,1-.05,5.9,4.57,4.57,0,0,1-4.17,2.78,3.52,3.52,0,0,1-1.67-.39,3.81,3.81,0,0,1-1.21-1v5.33Zm1.69-9.61a4.8,4.8,0,0,0,.85,3.13,2.63,2.63,0,0,0,2.07,1,2.68,2.68,0,0,0,2.12-1.05,5,5,0,0,0,.88-3.24,4.82,4.82,0,0,0-.86-3.14,2.59,2.59,0,0,0-2.05-1,2.68,2.68,0,0,0-2.1,1.11A4.94,4.94,0,0,0,369.55,169.19Z"/><path class="cls-4" d="M386.75,173.25a6.88,6.88,0,0,1-2,1.24,5.78,5.78,0,0,1-2,.36A4,4,0,0,1,380,174a2.9,2.9,0,0,1-1-2.25,3,3,0,0,1,.36-1.47,3.2,3.2,0,0,1,1-1.07,4.55,4.55,0,0,1,1.34-.61,12.73,12.73,0,0,1,1.65-.27,17.65,17.65,0,0,0,3.31-.64c0-.26,0-.42,0-.49a2.07,2.07,0,0,0-.53-1.6,3.09,3.09,0,0,0-2.11-.63,3.36,3.36,0,0,0-1.94.46,2.86,2.86,0,0,0-.92,1.63l-1.81-.25a4.39,4.39,0,0,1,.81-1.88,3.53,3.53,0,0,1,1.64-1.1,7.27,7.27,0,0,1,2.49-.39,6.63,6.63,0,0,1,2.28.33,3,3,0,0,1,1.28.83,2.83,2.83,0,0,1,.58,1.26,10.82,10.82,0,0,1,.09,1.71V170a26,26,0,0,0,.12,3.27,4.11,4.11,0,0,0,.47,1.31h-1.94A4,4,0,0,1,386.75,173.25Zm-.15-4.14a14,14,0,0,1-3,.7,6.74,6.74,0,0,0-1.62.37,1.58,1.58,0,0,0-.73.61,1.49,1.49,0,0,0-.26.88,1.59,1.59,0,0,0,.56,1.23,2.4,2.4,0,0,0,1.64.5,3.83,3.83,0,0,0,1.91-.47,2.87,2.87,0,0,0,1.23-1.28,4.49,4.49,0,0,0,.3-1.86Z"/><path class="cls-4" d="M391.31,174.6V159.49h1.85V174.6Z"/><path class="cls-4" d="M403.54,171.08l1.91.24a4.6,4.6,0,0,1-1.68,2.6,5.68,5.68,0,0,1-6.94-.55,5.76,5.76,0,0,1-1.41-4.15,6.06,6.06,0,0,1,1.43-4.29,4.81,4.81,0,0,1,3.69-1.52,4.68,4.68,0,0,1,3.58,1.49,5.94,5.94,0,0,1,1.4,4.21c0,.11,0,.27,0,.49h-8.17a4.23,4.23,0,0,0,1,2.77,3,3,0,0,0,2.29,1,2.82,2.82,0,0,0,1.74-.54A3.66,3.66,0,0,0,403.54,171.08Zm-6.1-3h6.12a3.8,3.8,0,0,0-.7-2.07,2.85,2.85,0,0,0-2.3-1.08,2.94,2.94,0,0,0-2.15.86A3.43,3.43,0,0,0,397.44,168.08Z"/><path class="cls-4" d="M407,171.34l1.84-.29a2.56,2.56,0,0,0,.86,1.69,3,3,0,0,0,2,.59,3,3,0,0,0,1.9-.52,1.58,1.58,0,0,0,.62-1.23,1.14,1.14,0,0,0-.55-1,8.19,8.19,0,0,0-1.9-.62,18,18,0,0,1-2.83-.9,2.7,2.7,0,0,1-1.19-1,2.84,2.84,0,0,1-.07-2.82,2.93,2.93,0,0,1,.91-1,4,4,0,0,1,1.18-.54,5.53,5.53,0,0,1,1.6-.22,6.26,6.26,0,0,1,2.26.37,3.06,3.06,0,0,1,1.44,1,3.91,3.91,0,0,1,.64,1.69l-1.81.25a2,2,0,0,0-.72-1.32,2.58,2.58,0,0,0-1.67-.48,3,3,0,0,0-1.83.43,1.24,1.24,0,0,0-.55,1,1.05,1.05,0,0,0,.23.65,1.63,1.63,0,0,0,.71.49c.19.07.73.23,1.64.48a21.88,21.88,0,0,1,2.75.86,2.59,2.59,0,0,1,1.66,2.56,3.13,3.13,0,0,1-.54,1.75A3.46,3.46,0,0,1,414,174.4a5.67,5.67,0,0,1-2.31.45,5.14,5.14,0,0,1-3.25-.88A4.15,4.15,0,0,1,407,171.34Z"/><path class="cls-4" d="M431.35,170.59l1.83.24a4.68,4.68,0,0,1-1.54,2.95,4.4,4.4,0,0,1-3,1.07,4.73,4.73,0,0,1-3.62-1.47,6,6,0,0,1-1.36-4.21,7.65,7.65,0,0,1,.59-3.1,4.12,4.12,0,0,1,1.79-2,5.33,5.33,0,0,1,2.61-.66,4.56,4.56,0,0,1,2.92.9,4.16,4.16,0,0,1,1.45,2.56l-1.8.28a3,3,0,0,0-.92-1.66,2.35,2.35,0,0,0-1.58-.56,2.9,2.9,0,0,0-2.28,1,4.8,4.8,0,0,0-.87,3.18,5,5,0,0,0,.84,3.21,2.78,2.78,0,0,0,2.21,1,2.62,2.62,0,0,0,1.82-.67A3.34,3.34,0,0,0,431.35,170.59Z"/><path class="cls-4" d="M434.07,169.13a5.64,5.64,0,0,1,1.69-4.5,5.06,5.06,0,0,1,3.45-1.22,4.91,4.91,0,0,1,3.69,1.48,5.64,5.64,0,0,1,1.43,4.09,7.29,7.29,0,0,1-.63,3.32,4.53,4.53,0,0,1-1.85,1.88,5.34,5.34,0,0,1-2.64.67,4.92,4.92,0,0,1-3.72-1.47A5.88,5.88,0,0,1,434.07,169.13Zm1.91,0a4.68,4.68,0,0,0,.92,3.15,3,3,0,0,0,4.61,0,4.77,4.77,0,0,0,.91-3.2,4.5,4.5,0,0,0-.92-3.08,3,3,0,0,0-4.6,0A4.63,4.63,0,0,0,436,169.13Z"/><path class="cls-4" d="M446.51,174.6V163.66h1.66v1.53a3.86,3.86,0,0,1,1.37-1.29,3.82,3.82,0,0,1,1.95-.49,3.65,3.65,0,0,1,2,.5,2.7,2.7,0,0,1,1.1,1.42,3.92,3.92,0,0,1,3.38-1.92,3.31,3.31,0,0,1,2.5.9,3.83,3.83,0,0,1,.88,2.78v7.51H459.5v-6.89a5.12,5.12,0,0,0-.18-1.61,1.51,1.51,0,0,0-.66-.78,2.05,2.05,0,0,0-1.11-.3,2.6,2.6,0,0,0-1.92.76,3.4,3.4,0,0,0-.76,2.46v6.36H453v-7.11a3.13,3.13,0,0,0-.45-1.85,1.7,1.7,0,0,0-1.49-.62,2.68,2.68,0,0,0-1.45.41,2.34,2.34,0,0,0-1,1.21,6.7,6.7,0,0,0-.3,2.28v5.68Z"/><path class="cls-4" d="M463.4,169.13a5.64,5.64,0,0,1,1.69-4.5,5.06,5.06,0,0,1,3.45-1.22,4.91,4.91,0,0,1,3.69,1.48,5.64,5.64,0,0,1,1.43,4.09,7.29,7.29,0,0,1-.63,3.32,4.53,4.53,0,0,1-1.85,1.88,5.34,5.34,0,0,1-2.64.67,4.92,4.92,0,0,1-3.72-1.47A5.88,5.88,0,0,1,463.4,169.13Zm1.91,0a4.68,4.68,0,0,0,.92,3.15,3,3,0,0,0,4.61,0,4.77,4.77,0,0,0,.91-3.2,4.5,4.5,0,0,0-.92-3.08,3,3,0,0,0-4.6,0A4.63,4.63,0,0,0,465.31,169.13Z"/><path class="cls-4" d="M488.8,174.6v-1.38a3.39,3.39,0,0,1-3.06,1.63,4.28,4.28,0,0,1-2.4-.72,4.73,4.73,0,0,1-1.71-2,7,7,0,0,1-.6-3,7.67,7.67,0,0,1,.55-3,4.27,4.27,0,0,1,1.64-2,4.41,4.41,0,0,1,2.44-.71,3.69,3.69,0,0,1,3,1.5v-5.42h1.85V174.6Zm-5.86-5.46a4.74,4.74,0,0,0,.88,3.14,2.68,2.68,0,0,0,2.1,1.05,2.65,2.65,0,0,0,2.07-1,4.62,4.62,0,0,0,.85-3A5.12,5.12,0,0,0,488,166a2.65,2.65,0,0,0-2.13-1.06,2.57,2.57,0,0,0-2.07,1A5,5,0,0,0,482.94,169.14Z"/><path class="cls-4" d="M500.94,171.08l1.92.24a4.71,4.71,0,0,1-1.68,2.6,5.07,5.07,0,0,1-3.14.93,5,5,0,0,1-3.81-1.48,5.76,5.76,0,0,1-1.4-4.15,6.05,6.05,0,0,1,1.42-4.29,4.84,4.84,0,0,1,3.69-1.52,4.71,4.71,0,0,1,3.59,1.49,6,6,0,0,1,1.39,4.21c0,.11,0,.27,0,.49h-8.17a4.23,4.23,0,0,0,1,2.77,3.06,3.06,0,0,0,2.29,1,2.87,2.87,0,0,0,1.75-.54A3.57,3.57,0,0,0,500.94,171.08Zm-6.09-3H501a3.72,3.72,0,0,0-.7-2.07,2.84,2.84,0,0,0-2.3-1.08,3,3,0,0,0-2.15.86A3.37,3.37,0,0,0,494.85,168.08Z"/><path class="cls-4" d="M504.45,171.34l1.83-.29a2.56,2.56,0,0,0,.86,1.69,3,3,0,0,0,2,.59,2.92,2.92,0,0,0,1.89-.52,1.58,1.58,0,0,0,.62-1.23,1.13,1.13,0,0,0-.54-1,8.38,8.38,0,0,0-1.9-.62,17.68,17.68,0,0,1-2.83-.9,2.67,2.67,0,0,1-1.2-1,2.76,2.76,0,0,1-.41-1.47,2.85,2.85,0,0,1,.34-1.35,3,3,0,0,1,.91-1,4,4,0,0,1,1.18-.54,5.59,5.59,0,0,1,1.61-.22,6.3,6.3,0,0,1,2.26.37,3.06,3.06,0,0,1,1.44,1,3.91,3.91,0,0,1,.64,1.69l-1.82.25a2,2,0,0,0-.71-1.32,2.62,2.62,0,0,0-1.68-.48,3,3,0,0,0-1.83.43,1.23,1.23,0,0,0-.54,1,1,1,0,0,0,.22.65,1.66,1.66,0,0,0,.72.49c.18.07.73.23,1.64.48a21.59,21.59,0,0,1,2.74.86,2.58,2.58,0,0,1,1.67,2.56,3.13,3.13,0,0,1-.54,1.75,3.44,3.44,0,0,1-1.57,1.26,5.62,5.62,0,0,1-2.3.45,5.17,5.17,0,0,1-3.26-.88A4.14,4.14,0,0,1,504.45,171.34Z"/><path class="cls-4" d="M519.8,172.94l.26,1.64a6.9,6.9,0,0,1-1.4.17,3.18,3.18,0,0,1-1.56-.32,1.73,1.73,0,0,1-.79-.84,6.67,6.67,0,0,1-.23-2.19v-6.3h-1.36v-1.44h1.36v-2.72l1.85-1.11v3.83h1.87v1.44h-1.87v6.4a3.06,3.06,0,0,0,.1,1,.74.74,0,0,0,.32.36,1.23,1.23,0,0,0,.63.14A6,6,0,0,0,519.8,172.94Z"/><path class="cls-4" d="M521.62,161.62v-2.13h1.86v2.13Zm0,13V163.66h1.86V174.6Z"/><path class="cls-4" d="M526.3,174.6V163.66H528v1.55a4,4,0,0,1,3.49-1.8,4.72,4.72,0,0,1,1.82.35,2.9,2.9,0,0,1,1.24.94,3.62,3.62,0,0,1,.58,1.37,11.66,11.66,0,0,1,.1,1.8v6.73h-1.86v-6.66a5.11,5.11,0,0,0-.21-1.69,1.82,1.82,0,0,0-.77-.9,2.49,2.49,0,0,0-1.3-.33,3,3,0,0,0-2,.75,3.69,3.69,0,0,0-.86,2.86v6Z"/><path class="cls-4" d="M537.35,169.13a5.64,5.64,0,0,1,1.69-4.5,5.07,5.07,0,0,1,3.45-1.22,4.91,4.91,0,0,1,3.69,1.48,5.64,5.64,0,0,1,1.43,4.09,7.29,7.29,0,0,1-.63,3.32,4.53,4.53,0,0,1-1.85,1.88,5.34,5.34,0,0,1-2.64.67,5,5,0,0,1-3.72-1.47A5.93,5.93,0,0,1,537.35,169.13Zm1.91,0a4.68,4.68,0,0,0,.92,3.15,3,3,0,0,0,4.61,0,4.77,4.77,0,0,0,.91-3.2,4.5,4.5,0,0,0-.92-3.08,3,3,0,0,0-4.6,0A4.63,4.63,0,0,0,539.26,169.13Z"/><path class="cls-4" d="M550.27,174.6v-2.11h2.12v2.11a3.73,3.73,0,0,1-.42,1.89,2.68,2.68,0,0,1-1.31,1.1l-.51-.79A1.7,1.7,0,0,0,551,176a3.14,3.14,0,0,0,.31-1.44Z"/><path class="cls-4" d="M562,174.6v-9.5h-1.64v-1.44H562v-1.17a5.14,5.14,0,0,1,.2-1.64,2.38,2.38,0,0,1,.94-1.17,3.39,3.39,0,0,1,1.89-.45,8.7,8.7,0,0,1,1.74.19l-.28,1.62a6.21,6.21,0,0,0-1.1-.11,1.61,1.61,0,0,0-1.19.36,2,2,0,0,0-.35,1.36v1h2.13v1.44h-2.13v9.5Z"/><path class="cls-4" d="M574.88,171.08l1.92.24a4.71,4.71,0,0,1-1.68,2.6,5.07,5.07,0,0,1-3.14.93,5,5,0,0,1-3.81-1.48,5.76,5.76,0,0,1-1.4-4.15,6.05,6.05,0,0,1,1.42-4.29,4.84,4.84,0,0,1,3.69-1.52,4.71,4.71,0,0,1,3.59,1.49,6,6,0,0,1,1.39,4.21c0,.11,0,.27,0,.49h-8.17a4.23,4.23,0,0,0,1,2.77,3.06,3.06,0,0,0,2.29,1,2.87,2.87,0,0,0,1.75-.54A3.57,3.57,0,0,0,574.88,171.08Zm-6.09-3h6.11a3.72,3.72,0,0,0-.7-2.07,2.84,2.84,0,0,0-2.3-1.08,3,3,0,0,0-2.15.86A3.37,3.37,0,0,0,568.79,168.08Z"/><path class="cls-4" d="M586.27,170.59l1.83.24a4.72,4.72,0,0,1-1.53,2.95,4.44,4.44,0,0,1-3,1.07,4.69,4.69,0,0,1-3.61-1.47,6,6,0,0,1-1.37-4.21,7.65,7.65,0,0,1,.59-3.1,4.12,4.12,0,0,1,1.79-2,5.33,5.33,0,0,1,2.61-.66,4.56,4.56,0,0,1,2.92.9,4.16,4.16,0,0,1,1.45,2.56l-1.8.28a3,3,0,0,0-.92-1.66,2.35,2.35,0,0,0-1.58-.56,2.9,2.9,0,0,0-2.28,1,4.8,4.8,0,0,0-.87,3.18,5,5,0,0,0,.84,3.21,2.78,2.78,0,0,0,2.21,1,2.6,2.6,0,0,0,1.82-.67A3.34,3.34,0,0,0,586.27,170.59Z"/><path class="cls-4" d="M589.68,174.6V159.49h1.86v5.42a4.16,4.16,0,0,1,3.28-1.5,4.41,4.41,0,0,1,2.11.48,2.84,2.84,0,0,1,1.29,1.32,6.29,6.29,0,0,1,.38,2.46v6.93h-1.85v-6.93a2.88,2.88,0,0,0-.61-2,2.24,2.24,0,0,0-1.7-.63,3,3,0,0,0-1.55.42,2.42,2.42,0,0,0-1,1.16,5.29,5.29,0,0,0-.31,2v6Z"/><path class="cls-4" d="M608.57,173.25a6.88,6.88,0,0,1-2,1.24,5.78,5.78,0,0,1-2.05.36,4,4,0,0,1-2.77-.88,2.9,2.9,0,0,1-1-2.25,3,3,0,0,1,.36-1.47,3.2,3.2,0,0,1,1-1.07,4.55,4.55,0,0,1,1.34-.61,12.73,12.73,0,0,1,1.65-.27,17.65,17.65,0,0,0,3.31-.64c0-.26,0-.42,0-.49a2.07,2.07,0,0,0-.53-1.6,3.09,3.09,0,0,0-2.11-.63,3.36,3.36,0,0,0-1.94.46,2.86,2.86,0,0,0-.92,1.63l-1.81-.25a4.39,4.39,0,0,1,.81-1.88,3.53,3.53,0,0,1,1.64-1.1,7.27,7.27,0,0,1,2.49-.39,6.53,6.53,0,0,1,2.27.33,3,3,0,0,1,1.29.83,2.83,2.83,0,0,1,.58,1.26,10.82,10.82,0,0,1,.09,1.71V170a26,26,0,0,0,.12,3.27,4.11,4.11,0,0,0,.47,1.31h-1.94A4,4,0,0,1,608.57,173.25Zm-.15-4.14a14,14,0,0,1-3,.7,6.74,6.74,0,0,0-1.62.37,1.58,1.58,0,0,0-.73.61,1.49,1.49,0,0,0-.26.88,1.59,1.59,0,0,0,.56,1.23,2.4,2.4,0,0,0,1.64.5,3.83,3.83,0,0,0,1.91-.47,2.87,2.87,0,0,0,1.23-1.28,4.49,4.49,0,0,0,.3-1.86Z"/><path class="cls-4" d="M612.43,171.34l1.83-.29a2.6,2.6,0,0,0,.86,1.69,3,3,0,0,0,2,.59,3,3,0,0,0,1.9-.52,1.57,1.57,0,0,0,.61-1.23,1.13,1.13,0,0,0-.54-1,8.38,8.38,0,0,0-1.9-.62,18,18,0,0,1-2.83-.9,2.67,2.67,0,0,1-1.6-2.51,2.84,2.84,0,0,1,.33-1.35,3.14,3.14,0,0,1,.91-1,4.07,4.07,0,0,1,1.18-.54,5.59,5.59,0,0,1,1.61-.22,6.26,6.26,0,0,1,2.26.37,3.06,3.06,0,0,1,1.44,1,3.91,3.91,0,0,1,.64,1.69l-1.82.25a2,2,0,0,0-.71-1.32,2.62,2.62,0,0,0-1.68-.48,3,3,0,0,0-1.82.43,1.22,1.22,0,0,0-.55,1,1.05,1.05,0,0,0,.23.65,1.63,1.63,0,0,0,.71.49c.18.07.73.23,1.64.48a21.88,21.88,0,0,1,2.75.86,2.59,2.59,0,0,1,1.66,2.56,3.13,3.13,0,0,1-.54,1.75,3.46,3.46,0,0,1-1.56,1.26,5.67,5.67,0,0,1-2.31.45,5.14,5.14,0,0,1-3.25-.88A4.11,4.11,0,0,1,612.43,171.34Z"/><path class="cls-4" d="M629.51,178.82l-.21-1.74a4.14,4.14,0,0,0,1.07.16,2,2,0,0,0,1-.2,1.67,1.67,0,0,0,.6-.58,9,9,0,0,0,.57-1.38c0-.1.09-.26.17-.45l-4.16-11h2l2.28,6.34a25.84,25.84,0,0,1,.79,2.53,25.68,25.68,0,0,1,.77-2.49l2.34-6.38h1.85l-4.16,11.13a23.87,23.87,0,0,1-1,2.48,3.63,3.63,0,0,1-1.14,1.35,2.61,2.61,0,0,1-1.52.43A3.77,3.77,0,0,1,629.51,178.82Z"/><path class="cls-4" d="M650.07,172.94l.26,1.64a6.82,6.82,0,0,1-1.4.17,3.18,3.18,0,0,1-1.56-.32,1.73,1.73,0,0,1-.79-.84,6.76,6.76,0,0,1-.22-2.19v-6.3H645v-1.44h1.37v-2.72l1.84-1.11v3.83h1.87v1.44H648.2v6.4a3.06,3.06,0,0,0,.1,1,.74.74,0,0,0,.32.36,1.23,1.23,0,0,0,.63.14A6,6,0,0,0,650.07,172.94Z"/><path class="cls-4" d="M651.89,161.62v-2.13h1.86v2.13Zm0,13V163.66h1.86V174.6Z"/><path class="cls-4" d="M656.57,178.8V163.66h1.69v1.42a4.06,4.06,0,0,1,1.35-1.25,3.72,3.72,0,0,1,1.83-.42,4.27,4.27,0,0,1,4.09,2.76,7.28,7.28,0,0,1,.55,2.88,7.15,7.15,0,0,1-.61,3,4.55,4.55,0,0,1-4.17,2.78,3.51,3.51,0,0,1-1.66-.39,3.7,3.7,0,0,1-1.21-1v5.33Zm1.68-9.61a4.79,4.79,0,0,0,.86,3.13,2.63,2.63,0,0,0,2.07,1,2.68,2.68,0,0,0,2.12-1.05,5,5,0,0,0,.88-3.24,4.88,4.88,0,0,0-.86-3.14,2.6,2.6,0,0,0-2.06-1,2.68,2.68,0,0,0-2.1,1.11A5,5,0,0,0,658.25,169.19Z"/><path class="cls-4" d="M667.62,169.13a5.61,5.61,0,0,1,1.7-4.5,5,5,0,0,1,3.44-1.22,4.91,4.91,0,0,1,3.69,1.48,5.64,5.64,0,0,1,1.43,4.09,7.29,7.29,0,0,1-.63,3.32,4.47,4.47,0,0,1-1.85,1.88,5.32,5.32,0,0,1-2.64.67,5,5,0,0,1-3.72-1.47A5.93,5.93,0,0,1,667.62,169.13Zm1.91,0a4.68,4.68,0,0,0,.92,3.15,3,3,0,0,0,4.61,0,4.77,4.77,0,0,0,.92-3.2,4.5,4.5,0,0,0-.93-3.08,3,3,0,0,0-4.6,0A4.63,4.63,0,0,0,669.53,169.13Z"/><path class="cls-4" d="M693,174.6v-1.38a3.41,3.41,0,0,1-3.06,1.63,4.29,4.29,0,0,1-2.41-.72,4.71,4.71,0,0,1-1.7-2,6.82,6.82,0,0,1-.61-3,7.85,7.85,0,0,1,.55-3,4.27,4.27,0,0,1,1.64-2,4.41,4.41,0,0,1,2.44-.71,3.65,3.65,0,0,1,3,1.5v-5.42h1.85V174.6Zm-5.87-5.46a4.74,4.74,0,0,0,.89,3.14,2.62,2.62,0,0,0,4.16.05,4.62,4.62,0,0,0,.85-3,5.12,5.12,0,0,0-.87-3.29,2.64,2.64,0,0,0-2.13-1.06,2.57,2.57,0,0,0-2.07,1A5,5,0,0,0,687.16,169.14Z"/><path class="cls-4" d="M705.16,171.08l1.92.24a4.6,4.6,0,0,1-1.68,2.6,5,5,0,0,1-3.14.93,5,5,0,0,1-3.8-1.48,5.76,5.76,0,0,1-1.41-4.15,6.05,6.05,0,0,1,1.42-4.29,4.84,4.84,0,0,1,3.69-1.52,4.7,4.7,0,0,1,3.59,1.49,5.94,5.94,0,0,1,1.39,4.21c0,.11,0,.27,0,.49H699a4.13,4.13,0,0,0,1,2.77,3,3,0,0,0,2.29,1,2.82,2.82,0,0,0,1.74-.54A3.57,3.57,0,0,0,705.16,171.08Zm-6.09-3h6.11a3.65,3.65,0,0,0-.7-2.07,2.84,2.84,0,0,0-2.3-1.08,3,3,0,0,0-2.15.86A3.37,3.37,0,0,0,699.07,168.08Z"/><path class="cls-4" d="M718.32,174.6l-4.17-10.94h2l2.35,6.55c.26.71.49,1.45.7,2.21.17-.58.4-1.27.69-2.08l2.44-6.68h1.9l-4.14,10.94Z"/><path class="cls-4" d="M725.84,161.62v-2.13h1.86v2.13Zm0,13V163.66h1.86V174.6Z"/><path class="cls-4" d="M737.67,173.25a6.79,6.79,0,0,1-2,1.24,5.68,5.68,0,0,1-2,.36,4,4,0,0,1-2.78-.88,2.93,2.93,0,0,1-1-2.25,3.08,3.08,0,0,1,1.33-2.54,4.49,4.49,0,0,1,1.33-.61,13.37,13.37,0,0,1,1.65-.27,17.48,17.48,0,0,0,3.31-.64c0-.26,0-.42,0-.49a2.06,2.06,0,0,0-.52-1.6,3.12,3.12,0,0,0-2.12-.63,3.33,3.33,0,0,0-1.93.46A2.86,2.86,0,0,0,732,167l-1.82-.25a4.53,4.53,0,0,1,.82-1.88,3.48,3.48,0,0,1,1.64-1.1,7.21,7.21,0,0,1,2.48-.39,6.55,6.55,0,0,1,2.28.33,3.1,3.1,0,0,1,1.29.83,2.94,2.94,0,0,1,.58,1.26,10.82,10.82,0,0,1,.09,1.71V170a26,26,0,0,0,.12,3.27,3.89,3.89,0,0,0,.47,1.31H738A3.82,3.82,0,0,1,737.67,173.25Zm-.16-4.14a13.66,13.66,0,0,1-3,.7,7,7,0,0,0-1.62.37,1.63,1.63,0,0,0-.73.61,1.61,1.61,0,0,0,.31,2.11,2.4,2.4,0,0,0,1.64.5,3.86,3.86,0,0,0,1.91-.47,2.9,2.9,0,0,0,1.22-1.28,4.49,4.49,0,0,0,.3-1.86Z"/><path class="cls-4" d="M739.91,178.85l.35-1.58a3.57,3.57,0,0,0,.87.15A1,1,0,0,0,742,177a3.9,3.9,0,0,0,.28-1.88v-11.5h1.85V175.2a5.45,5.45,0,0,1-.52,2.82,2.48,2.48,0,0,1-2.23,1A5.34,5.34,0,0,1,739.91,178.85Zm2.35-17.2v-2.16h1.85v2.16Z"/><path class="cls-4" d="M754.45,171.08l1.92.24a4.6,4.6,0,0,1-1.68,2.6,5,5,0,0,1-3.13.93,5,5,0,0,1-3.81-1.48,5.76,5.76,0,0,1-1.41-4.15,6.05,6.05,0,0,1,1.42-4.29,4.84,4.84,0,0,1,3.69-1.52A4.7,4.7,0,0,1,755,164.9a5.94,5.94,0,0,1,1.39,4.21c0,.11,0,.27,0,.49h-8.16a4.23,4.23,0,0,0,1,2.77,3,3,0,0,0,2.29,1,2.82,2.82,0,0,0,1.74-.54A3.57,3.57,0,0,0,754.45,171.08Zm-6.09-3h6.11a3.65,3.65,0,0,0-.7-2.07,2.84,2.84,0,0,0-2.3-1.08,3,3,0,0,0-2.15.86A3.37,3.37,0,0,0,748.36,168.08Z"/><path class="cls-4" d="M759.23,174.6v-2.11h2.11v2.11Z"/><path class="cls-4" d="M318,199.94V184.83h2v15.11Z"/><path class="cls-4" d="M330.38,199.94v-1.38a3.39,3.39,0,0,1-3.06,1.63,4.31,4.31,0,0,1-2.41-.72,4.76,4.76,0,0,1-1.7-2,7,7,0,0,1-.6-3,7.87,7.87,0,0,1,.54-3,4.3,4.3,0,0,1,1.64-2,4.37,4.37,0,0,1,2.45-.72,3.63,3.63,0,0,1,1.76.42,3.8,3.8,0,0,1,1.26,1.09v-5.42h1.84v15.11Zm-5.87-5.46a4.74,4.74,0,0,0,.89,3.14,2.64,2.64,0,0,0,4.16,0,4.6,4.6,0,0,0,.85-3,5.13,5.13,0,0,0-.87-3.3,2.64,2.64,0,0,0-2.13-1.05,2.6,2.6,0,0,0-2.07,1A5,5,0,0,0,324.51,194.48Z"/><path class="cls-4" d="M342.51,196.41l1.92.24a4.66,4.66,0,0,1-1.68,2.61,5.68,5.68,0,0,1-6.94-.55,5.78,5.78,0,0,1-1.41-4.15,6.05,6.05,0,0,1,1.42-4.29,4.81,4.81,0,0,1,3.69-1.53,4.67,4.67,0,0,1,3.59,1.5,5.94,5.94,0,0,1,1.39,4.21c0,.11,0,.27,0,.49h-8.16a4.22,4.22,0,0,0,1,2.76,3,3,0,0,0,2.29,1,2.88,2.88,0,0,0,1.74-.53A3.56,3.56,0,0,0,342.51,196.41Zm-6.09-3h6.11a3.65,3.65,0,0,0-.7-2.08,2.85,2.85,0,0,0-2.3-1.07,2.93,2.93,0,0,0-2.14.86A3.33,3.33,0,0,0,336.42,193.42Z"/><path class="cls-4" d="M353.91,198.59a7,7,0,0,1-2,1.24,5.72,5.72,0,0,1-2,.36,4,4,0,0,1-2.78-.88,2.94,2.94,0,0,1-1-2.26,3.08,3.08,0,0,1,1.33-2.53,4.49,4.49,0,0,1,1.33-.61,13,13,0,0,1,1.65-.28,16.87,16.87,0,0,0,3.31-.64c0-.25,0-.41,0-.48a2.05,2.05,0,0,0-.52-1.6,3.12,3.12,0,0,0-2.12-.63,3.25,3.25,0,0,0-1.93.46,2.81,2.81,0,0,0-.92,1.62l-1.82-.24a4.57,4.57,0,0,1,.82-1.89,3.57,3.57,0,0,1,1.64-1.1,7.21,7.21,0,0,1,2.48-.39,6.59,6.59,0,0,1,2.28.33,3.1,3.1,0,0,1,1.29.83,3,3,0,0,1,.57,1.27,9.28,9.28,0,0,1,.1,1.71v2.47a26.06,26.06,0,0,0,.12,3.28,4,4,0,0,0,.47,1.31h-1.94A3.62,3.62,0,0,1,353.91,198.59Zm-.16-4.14a14.26,14.26,0,0,1-3,.7,7,7,0,0,0-1.62.37,1.67,1.67,0,0,0-.73.6,1.62,1.62,0,0,0-.26.88,1.59,1.59,0,0,0,.56,1.24,2.44,2.44,0,0,0,1.65.49,3.88,3.88,0,0,0,1.91-.46,2.92,2.92,0,0,0,1.22-1.29,4.47,4.47,0,0,0,.3-1.85Z"/><path class="cls-4" d="M358.46,199.94V184.83h1.86v15.11Z"/><path class="cls-4" d="M369.06,204.14V189h1.69v1.42a4.28,4.28,0,0,1,1.35-1.25,3.7,3.7,0,0,1,1.83-.42,4.33,4.33,0,0,1,2.47.73,4.38,4.38,0,0,1,1.62,2,7.54,7.54,0,0,1,.55,2.88,7.23,7.23,0,0,1-.61,3,4.59,4.59,0,0,1-4.17,2.78,3.48,3.48,0,0,1-1.66-.39,3.7,3.7,0,0,1-1.21-1v5.33Zm1.68-9.61a4.74,4.74,0,0,0,.86,3.12,2.6,2.6,0,0,0,2.07,1,2.71,2.71,0,0,0,2.12-1,5,5,0,0,0,.88-3.25,4.85,4.85,0,0,0-.86-3.13,2.61,2.61,0,0,0-2.06-1,2.68,2.68,0,0,0-2.1,1.11A5,5,0,0,0,370.74,194.53Z"/><path class="cls-4" d="M388,198.59a7,7,0,0,1-2,1.24,5.68,5.68,0,0,1-2,.36,4,4,0,0,1-2.78-.88,2.94,2.94,0,0,1-1-2.26,3,3,0,0,1,.37-1.46,2.92,2.92,0,0,1,1-1.07,4.49,4.49,0,0,1,1.33-.61,13,13,0,0,1,1.65-.28,16.71,16.71,0,0,0,3.31-.64c0-.25,0-.41,0-.48a2.05,2.05,0,0,0-.52-1.6,3.12,3.12,0,0,0-2.12-.63,3.25,3.25,0,0,0-1.93.46,2.86,2.86,0,0,0-.92,1.62l-1.82-.24a4.57,4.57,0,0,1,.82-1.89,3.63,3.63,0,0,1,1.64-1.1,7.21,7.21,0,0,1,2.48-.39,6.55,6.55,0,0,1,2.28.33,2.6,2.6,0,0,1,1.87,2.1,10.65,10.65,0,0,1,.09,1.71v2.47a26.06,26.06,0,0,0,.12,3.28,4,4,0,0,0,.47,1.31h-1.94A3.82,3.82,0,0,1,388,198.59Zm-.16-4.14a14.26,14.26,0,0,1-3,.7,7,7,0,0,0-1.62.37,1.67,1.67,0,0,0-.73.6,1.62,1.62,0,0,0-.26.88,1.57,1.57,0,0,0,.57,1.24,2.4,2.4,0,0,0,1.64.49,3.88,3.88,0,0,0,1.91-.46,2.92,2.92,0,0,0,1.22-1.29,4.47,4.47,0,0,0,.3-1.85Z"/><path class="cls-4" d="M392.53,199.94V189h1.67v1.66a4.42,4.42,0,0,1,1.18-1.53,2,2,0,0,1,1.19-.38,3.59,3.59,0,0,1,1.9.6l-.63,1.72a2.76,2.76,0,0,0-1.37-.4,1.73,1.73,0,0,0-1.09.37,2,2,0,0,0-.69,1,7.16,7.16,0,0,0-.31,2.17v5.73Z"/><path class="cls-4" d="M406.72,198.59a7.11,7.11,0,0,1-2,1.24,5.78,5.78,0,0,1-2.05.36,4,4,0,0,1-2.77-.88,2.91,2.91,0,0,1-1-2.26,3,3,0,0,1,.36-1.46,3.11,3.11,0,0,1,1-1.07,4.55,4.55,0,0,1,1.34-.61,12.37,12.37,0,0,1,1.65-.28,16.87,16.87,0,0,0,3.31-.64c0-.25,0-.41,0-.48a2.05,2.05,0,0,0-.53-1.6,3.09,3.09,0,0,0-2.11-.63,3.28,3.28,0,0,0-1.94.46,2.86,2.86,0,0,0-.92,1.62l-1.81-.24a4.44,4.44,0,0,1,.81-1.89,3.68,3.68,0,0,1,1.64-1.1,7.27,7.27,0,0,1,2.49-.39,6.53,6.53,0,0,1,2.27.33,3,3,0,0,1,1.29.83,2.92,2.92,0,0,1,.58,1.27,10.65,10.65,0,0,1,.09,1.71v2.47a26.06,26.06,0,0,0,.12,3.28,4.29,4.29,0,0,0,.47,1.31h-1.94A4,4,0,0,1,406.72,198.59Zm-.15-4.14a14.57,14.57,0,0,1-3,.7,6.74,6.74,0,0,0-1.62.37,1.62,1.62,0,0,0-.73.6,1.54,1.54,0,0,0-.26.88,1.56,1.56,0,0,0,.56,1.24,2.4,2.4,0,0,0,1.64.49,3.86,3.86,0,0,0,1.91-.46,2.89,2.89,0,0,0,1.23-1.29,4.47,4.47,0,0,0,.3-1.85Z"/><path class="cls-4" d="M424.33,195.93l1.82.24a4.67,4.67,0,0,1-1.53,3,4.46,4.46,0,0,1-3,1.07,4.71,4.71,0,0,1-3.62-1.47,6,6,0,0,1-1.36-4.21,7.54,7.54,0,0,1,.59-3.11,4.08,4.08,0,0,1,1.78-2,5.4,5.4,0,0,1,2.62-.67,4.57,4.57,0,0,1,2.92.91,4.13,4.13,0,0,1,1.45,2.56l-1.8.28a3,3,0,0,0-.92-1.66,2.35,2.35,0,0,0-1.58-.56,2.9,2.9,0,0,0-2.28,1,4.8,4.8,0,0,0-.87,3.18,4.93,4.93,0,0,0,.84,3.2,2.74,2.74,0,0,0,2.21,1,2.57,2.57,0,0,0,1.82-.67A3.28,3.28,0,0,0,424.33,195.93Z"/><path class="cls-4" d="M427.05,194.47a5.68,5.68,0,0,1,1.69-4.51,5.11,5.11,0,0,1,3.45-1.22,5,5,0,0,1,3.69,1.48,5.66,5.66,0,0,1,1.43,4.09,7.31,7.31,0,0,1-.63,3.33,4.59,4.59,0,0,1-1.85,1.88,5.34,5.34,0,0,1-2.64.67,4.89,4.89,0,0,1-3.72-1.48A5.84,5.84,0,0,1,427.05,194.47Zm1.91,0a4.68,4.68,0,0,0,.92,3.15,3,3,0,0,0,2.31,1,2.91,2.91,0,0,0,2.29-1,4.73,4.73,0,0,0,.92-3.21,4.52,4.52,0,0,0-.92-3.07,3.05,3.05,0,0,0-4.6,0A4.66,4.66,0,0,0,429,194.47Z"/><path class="cls-4" d="M439.49,199.94V189h1.65v1.54a4,4,0,0,1,1.38-1.3,3.91,3.91,0,0,1,1.94-.49,3.58,3.58,0,0,1,2,.51,2.76,2.76,0,0,1,1.1,1.41,3.92,3.92,0,0,1,3.38-1.92,3.33,3.33,0,0,1,2.5.91,3.82,3.82,0,0,1,.88,2.78v7.51h-1.84V193a5,5,0,0,0-.19-1.6,1.52,1.52,0,0,0-.65-.79,2.05,2.05,0,0,0-1.11-.3,2.61,2.61,0,0,0-1.92.77,3.37,3.37,0,0,0-.76,2.46v6.36H446v-7.11a3.15,3.15,0,0,0-.45-1.86,1.74,1.74,0,0,0-1.49-.62,2.69,2.69,0,0,0-1.45.42,2.31,2.31,0,0,0-1,1.2,6.77,6.77,0,0,0-.3,2.29v5.68Z"/><path class="cls-4" d="M464.57,196.41l1.92.24a4.73,4.73,0,0,1-1.69,2.61,5.68,5.68,0,0,1-6.94-.55,5.78,5.78,0,0,1-1.41-4.15,6.06,6.06,0,0,1,1.43-4.29,4.81,4.81,0,0,1,3.69-1.53,4.69,4.69,0,0,1,3.59,1.5,6,6,0,0,1,1.39,4.21c0,.11,0,.27,0,.49h-8.17a4.22,4.22,0,0,0,1,2.76,3,3,0,0,0,2.29,1,2.88,2.88,0,0,0,1.74-.53A3.57,3.57,0,0,0,464.57,196.41Zm-6.09-3h6.11a3.73,3.73,0,0,0-.7-2.08,2.86,2.86,0,0,0-2.3-1.07,3,3,0,0,0-2.15.86A3.37,3.37,0,0,0,458.48,193.42Z"/><path class="cls-4" d="M468.82,199.94V189h1.67v1.56a3.93,3.93,0,0,1,3.48-1.81,4.51,4.51,0,0,1,1.82.36A2.9,2.9,0,0,1,477,190a3.6,3.6,0,0,1,.58,1.37,10.71,10.71,0,0,1,.1,1.81v6.73h-1.85v-6.66a4.78,4.78,0,0,0-.22-1.69,1.73,1.73,0,0,0-.77-.9,2.37,2.37,0,0,0-1.29-.34,3,3,0,0,0-2.05.76,3.71,3.71,0,0,0-.86,2.85v6Z"/><path class="cls-4" d="M479.58,199.94v-1.5l7-8c-.79,0-1.49.06-2.09.06H480V189h8.95v1.23L483,197.17l-1.14,1.27c.83-.07,1.61-.1,2.34-.1h5.06v1.6Z"/><path class="cls-4" d="M498.26,198.59a7.11,7.11,0,0,1-2,1.24,5.78,5.78,0,0,1-2,.36,4,4,0,0,1-2.77-.88,2.91,2.91,0,0,1-1-2.26,3,3,0,0,1,.36-1.46,3.11,3.11,0,0,1,1-1.07,4.55,4.55,0,0,1,1.34-.61,12.37,12.37,0,0,1,1.65-.28,17,17,0,0,0,3.31-.64c0-.25,0-.41,0-.48a2.05,2.05,0,0,0-.53-1.6,3.09,3.09,0,0,0-2.11-.63,3.26,3.26,0,0,0-1.94.46,2.86,2.86,0,0,0-.92,1.62l-1.81-.24a4.44,4.44,0,0,1,.81-1.89,3.63,3.63,0,0,1,1.64-1.1,7.21,7.21,0,0,1,2.48-.39,6.55,6.55,0,0,1,2.28.33,3,3,0,0,1,1.29.83,2.92,2.92,0,0,1,.58,1.27,10.65,10.65,0,0,1,.09,1.71v2.47a26.06,26.06,0,0,0,.12,3.28,4.29,4.29,0,0,0,.47,1.31h-1.94A4,4,0,0,1,498.26,198.59Zm-.15-4.14a14.57,14.57,0,0,1-3,.7,6.74,6.74,0,0,0-1.62.37,1.7,1.7,0,0,0-.74.6,1.61,1.61,0,0,0-.25.88,1.56,1.56,0,0,0,.56,1.24,2.4,2.4,0,0,0,1.64.49,3.86,3.86,0,0,0,1.91-.46,2.89,2.89,0,0,0,1.23-1.29,4.47,4.47,0,0,0,.3-1.85Z"/><path class="cls-4" d="M502.84,199.94V189h1.67v1.66a4.42,4.42,0,0,1,1.18-1.53,2.05,2.05,0,0,1,1.19-.38,3.64,3.64,0,0,1,1.91.6l-.64,1.72a2.76,2.76,0,0,0-1.36-.4,1.76,1.76,0,0,0-1.1.37,2,2,0,0,0-.69,1,7.48,7.48,0,0,0-.31,2.17v5.73Z"/><path class="cls-4" d="M522.9,198.59a7.11,7.11,0,0,1-2,1.24,5.78,5.78,0,0,1-2,.36,4,4,0,0,1-2.77-.88,2.91,2.91,0,0,1-1-2.26,3,3,0,0,1,.36-1.46,3.11,3.11,0,0,1,1-1.07,4.55,4.55,0,0,1,1.34-.61,12.37,12.37,0,0,1,1.65-.28,16.87,16.87,0,0,0,3.31-.64c0-.25,0-.41,0-.48a2.05,2.05,0,0,0-.53-1.6,3.09,3.09,0,0,0-2.11-.63,3.26,3.26,0,0,0-1.94.46,2.86,2.86,0,0,0-.92,1.62l-1.81-.24a4.44,4.44,0,0,1,.81-1.89,3.68,3.68,0,0,1,1.64-1.1,7.27,7.27,0,0,1,2.49-.39,6.53,6.53,0,0,1,2.27.33,3,3,0,0,1,1.29.83,2.92,2.92,0,0,1,.58,1.27,10.65,10.65,0,0,1,.09,1.71v2.47a26.06,26.06,0,0,0,.12,3.28,4.29,4.29,0,0,0,.47,1.31h-1.94A4,4,0,0,1,522.9,198.59Zm-.15-4.14a14.57,14.57,0,0,1-3,.7,6.74,6.74,0,0,0-1.62.37,1.62,1.62,0,0,0-.73.6,1.54,1.54,0,0,0-.26.88,1.56,1.56,0,0,0,.56,1.24,2.4,2.4,0,0,0,1.64.49,3.86,3.86,0,0,0,1.91-.46,2.89,2.89,0,0,0,1.23-1.29,4.47,4.47,0,0,0,.3-1.85Z"/><path class="cls-4" d="M533.37,204.14V189h1.69v1.42a4.08,4.08,0,0,1,1.35-1.25,3.68,3.68,0,0,1,1.82-.42,4.36,4.36,0,0,1,2.48.73,4.43,4.43,0,0,1,1.61,2,7.88,7.88,0,0,1-.05,5.91,4.52,4.52,0,0,1-1.76,2.06,4.46,4.46,0,0,1-2.41.72,3.52,3.52,0,0,1-1.67-.39,3.81,3.81,0,0,1-1.21-1v5.33Zm1.68-9.61a4.75,4.75,0,0,0,.85,3.12,2.6,2.6,0,0,0,2.07,1,2.7,2.7,0,0,0,2.12-1,5,5,0,0,0,.88-3.25,4.79,4.79,0,0,0-.86-3.13,2.59,2.59,0,0,0-2.05-1,2.68,2.68,0,0,0-2.1,1.11A4.94,4.94,0,0,0,535.05,194.53Z"/><path class="cls-4" d="M545.07,199.94V184.83h1.85v15.11Z"/><path class="cls-4" d="M556.94,198.59a7,7,0,0,1-2,1.24,5.78,5.78,0,0,1-2.05.36,4,4,0,0,1-2.77-.88,3.1,3.1,0,0,1-.6-3.72,3,3,0,0,1,1-1.07,4.67,4.67,0,0,1,1.34-.61,12.37,12.37,0,0,1,1.65-.28,16.87,16.87,0,0,0,3.31-.64c0-.25,0-.41,0-.48a2.05,2.05,0,0,0-.53-1.6,3.09,3.09,0,0,0-2.11-.63,3.23,3.23,0,0,0-1.93.46,2.81,2.81,0,0,0-.93,1.62l-1.81-.24a4.57,4.57,0,0,1,.81-1.89,3.68,3.68,0,0,1,1.64-1.1,7.31,7.31,0,0,1,2.49-.39,6.63,6.63,0,0,1,2.28.33,3.1,3.1,0,0,1,1.29.83,3,3,0,0,1,.57,1.27,10.3,10.3,0,0,1,.1,1.71v2.47a29.25,29.25,0,0,0,.11,3.28,4.29,4.29,0,0,0,.47,1.31h-1.94A4,4,0,0,1,556.94,198.59Zm-.15-4.14a14.41,14.41,0,0,1-3,.7,6.87,6.87,0,0,0-1.62.37,1.59,1.59,0,0,0-1,1.48,1.59,1.59,0,0,0,.56,1.24,2.43,2.43,0,0,0,1.65.49,3.82,3.82,0,0,0,1.9-.46,2.89,2.89,0,0,0,1.23-1.29,4.47,4.47,0,0,0,.3-1.85Z"/><path class="cls-4" d="M561.54,199.94V189h1.67v1.56a4,4,0,0,1,3.49-1.81,4.55,4.55,0,0,1,1.82.36,3,3,0,0,1,1.24.93,3.76,3.76,0,0,1,.58,1.37,10.71,10.71,0,0,1,.1,1.81v6.73h-1.86v-6.66a5.07,5.07,0,0,0-.21-1.69,1.77,1.77,0,0,0-.77-.9,2.4,2.4,0,0,0-1.3-.34,3,3,0,0,0-2,.76,3.71,3.71,0,0,0-.86,2.85v6Z"/><path class="cls-4" d="M573.3,187v-2.13h1.85V187Zm0,13V189h1.85v10.95Z"/><path class="cls-4" d="M578.42,199.94v-9.5h-1.64V189h1.64v-1.16a4.82,4.82,0,0,1,.2-1.64,2.33,2.33,0,0,1,.94-1.17,3.39,3.39,0,0,1,1.89-.45,8.61,8.61,0,0,1,1.73.19l-.28,1.61a6.05,6.05,0,0,0-1.09-.1,1.61,1.61,0,0,0-1.19.36,1.92,1.92,0,0,0-.36,1.35v1h2.14v1.45h-2.14v9.5Z"/><path class="cls-4" d="M583.85,187v-2.13h1.86V187Zm0,13V189h1.86v10.95Z"/><path class="cls-4" d="M595.68,195.93l1.82.24a4.72,4.72,0,0,1-1.53,3,4.46,4.46,0,0,1-3,1.07,4.71,4.71,0,0,1-3.62-1.47,6,6,0,0,1-1.36-4.21,7.7,7.7,0,0,1,.58-3.11,4.15,4.15,0,0,1,1.79-2,5.35,5.35,0,0,1,2.62-.67,4.52,4.52,0,0,1,2.91.91,4.14,4.14,0,0,1,1.46,2.56l-1.81.28a2.94,2.94,0,0,0-.91-1.66,2.37,2.37,0,0,0-1.58-.56,2.87,2.87,0,0,0-2.28,1,4.79,4.79,0,0,0-.88,3.18,4.92,4.92,0,0,0,.85,3.2,2.73,2.73,0,0,0,2.2,1,2.6,2.6,0,0,0,1.83-.67A3.28,3.28,0,0,0,595.68,195.93Z"/><path class="cls-4" d="M606.23,198.59a6.83,6.83,0,0,1-2,1.24,5.78,5.78,0,0,1-2,.36,4,4,0,0,1-2.77-.88,3.09,3.09,0,0,1,.36-4.79,4.49,4.49,0,0,1,1.33-.61,13,13,0,0,1,1.65-.28,16.87,16.87,0,0,0,3.31-.64c0-.25,0-.41,0-.48a2.09,2.09,0,0,0-.52-1.6,3.12,3.12,0,0,0-2.12-.63,3.23,3.23,0,0,0-1.93.46,2.75,2.75,0,0,0-.92,1.62l-1.82-.24a4.57,4.57,0,0,1,.82-1.89,3.57,3.57,0,0,1,1.64-1.1,7.21,7.21,0,0,1,2.48-.39,6.63,6.63,0,0,1,2.28.33,3.1,3.1,0,0,1,1.29.83,3,3,0,0,1,.57,1.27,9.28,9.28,0,0,1,.1,1.71v2.47a29.25,29.25,0,0,0,.11,3.28,4.29,4.29,0,0,0,.47,1.31h-1.93A3.82,3.82,0,0,1,606.23,198.59Zm-.15-4.14a14.26,14.26,0,0,1-3,.7,7,7,0,0,0-1.62.37,1.59,1.59,0,0,0-1,1.48,1.59,1.59,0,0,0,.56,1.24,2.44,2.44,0,0,0,1.65.49,3.82,3.82,0,0,0,1.9-.46,2.89,2.89,0,0,0,1.23-1.29,4.47,4.47,0,0,0,.3-1.85Z"/><path class="cls-4" d="M610.81,199.94V189h1.67v1.66a4.54,4.54,0,0,1,1.18-1.53,2.05,2.05,0,0,1,1.19-.38,3.59,3.59,0,0,1,1.91.6l-.64,1.72a2.73,2.73,0,0,0-1.36-.4,1.73,1.73,0,0,0-1.09.37,1.94,1.94,0,0,0-.69,1,7.16,7.16,0,0,0-.31,2.17v5.73Z"/><path class="cls-4" d="M630.91,199.94v-1.61a4,4,0,0,1-3.48,1.86,4.58,4.58,0,0,1-1.81-.37,2.93,2.93,0,0,1-1.24-.94,3.35,3.35,0,0,1-.58-1.37,10.06,10.06,0,0,1-.11-1.73V189h1.86v6.07a10.47,10.47,0,0,0,.11,2,1.94,1.94,0,0,0,.74,1.15,2.3,2.3,0,0,0,1.4.42,3,3,0,0,0,1.57-.43,2.39,2.39,0,0,0,1-1.16,5.94,5.94,0,0,0,.3-2.14V189h1.86v10.95Z"/><path class="cls-4" d="M635.47,199.94V189h1.67v1.56a4,4,0,0,1,3.49-1.81,4.55,4.55,0,0,1,1.82.36,2.9,2.9,0,0,1,1.24.93,3.6,3.6,0,0,1,.58,1.37,10.71,10.71,0,0,1,.1,1.81v6.73h-1.85v-6.66a5,5,0,0,0-.22-1.69,1.73,1.73,0,0,0-.77-.9,2.39,2.39,0,0,0-1.29-.34,3,3,0,0,0-2,.76,3.71,3.71,0,0,0-.86,2.85v6Z"/><path class="cls-4" d="M657.13,198.28l.27,1.64a6.83,6.83,0,0,1-1.4.16,3.24,3.24,0,0,1-1.57-.31,1.85,1.85,0,0,1-.78-.84,6.7,6.7,0,0,1-.23-2.2v-6.29h-1.36V189h1.36v-2.71l1.85-1.11V189h1.86v1.45h-1.86v6.4a3.06,3.06,0,0,0,.1,1,.74.74,0,0,0,.32.36,1.18,1.18,0,0,0,.63.13A5.52,5.52,0,0,0,657.13,198.28Z"/><path class="cls-4" d="M658.26,194.47A5.65,5.65,0,0,1,660,190a5.1,5.1,0,0,1,3.44-1.22,4.92,4.92,0,0,1,3.69,1.48,5.62,5.62,0,0,1,1.44,4.09,7.3,7.3,0,0,1-.64,3.33,4.56,4.56,0,0,1-1.84,1.88,5.35,5.35,0,0,1-2.65.67,4.88,4.88,0,0,1-3.71-1.48A5.84,5.84,0,0,1,658.26,194.47Zm1.9,0a4.68,4.68,0,0,0,.92,3.15,3.06,3.06,0,0,0,4.61,0,4.79,4.79,0,0,0,.92-3.21,4.52,4.52,0,0,0-.92-3.07,3.06,3.06,0,0,0-4.61,0A4.66,4.66,0,0,0,660.16,194.47Z"/><path class="cls-4" d="M677.87,199.94v-1.61a4,4,0,0,1-3.48,1.86,4.58,4.58,0,0,1-1.81-.37,2.93,2.93,0,0,1-1.24-.94,3.35,3.35,0,0,1-.58-1.37,10.06,10.06,0,0,1-.11-1.73V189h1.86v6.07a10.47,10.47,0,0,0,.11,2,1.94,1.94,0,0,0,.74,1.15,2.3,2.3,0,0,0,1.4.42,3,3,0,0,0,1.57-.43,2.39,2.39,0,0,0,1-1.16,5.94,5.94,0,0,0,.3-2.14V189h1.86v10.95Z"/><path class="cls-4" d="M682.41,199.94V189h1.67v1.66a4.54,4.54,0,0,1,1.18-1.53,2.05,2.05,0,0,1,1.19-.38,3.59,3.59,0,0,1,1.91.6l-.64,1.72a2.7,2.7,0,0,0-1.36-.4,1.73,1.73,0,0,0-1.09.37,2,2,0,0,0-.69,1,7.16,7.16,0,0,0-.31,2.17v5.73Z"/><path class="cls-4" d="M702.44,199.94v-1.38a3.41,3.41,0,0,1-3.07,1.63,4.28,4.28,0,0,1-2.4-.72,4.79,4.79,0,0,1-1.71-2,7,7,0,0,1-.6-3,7.68,7.68,0,0,1,.55-3,4.24,4.24,0,0,1,1.64-2,4.34,4.34,0,0,1,2.44-.72,3.66,3.66,0,0,1,3,1.51v-5.42h1.85v15.11Zm-5.87-5.46a4.69,4.69,0,0,0,.89,3.14,2.64,2.64,0,0,0,4.16,0,4.65,4.65,0,0,0,.85-3,5.13,5.13,0,0,0-.87-3.3,2.67,2.67,0,0,0-2.13-1.05,2.57,2.57,0,0,0-2.07,1A5,5,0,0,0,696.57,194.48Z"/><path class="cls-4" d="M714.57,196.41l1.92.24a4.72,4.72,0,0,1-1.68,2.61,5.07,5.07,0,0,1-3.14.93,5,5,0,0,1-3.81-1.48,5.82,5.82,0,0,1-1.4-4.15,6.05,6.05,0,0,1,1.42-4.29,4.81,4.81,0,0,1,3.69-1.53,4.69,4.69,0,0,1,3.59,1.5,6,6,0,0,1,1.39,4.21c0,.11,0,.27,0,.49h-8.17a4.22,4.22,0,0,0,1,2.76,3.06,3.06,0,0,0,2.29,1,2.93,2.93,0,0,0,1.75-.53A3.56,3.56,0,0,0,714.57,196.41Zm-6.09-3h6.11a3.73,3.73,0,0,0-.7-2.08,2.86,2.86,0,0,0-2.3-1.07,3,3,0,0,0-2.15.86A3.37,3.37,0,0,0,708.48,193.42Z"/><path class="cls-4" d="M718.08,196.67l1.83-.29a2.59,2.59,0,0,0,.86,1.7,3,3,0,0,0,2,.58,2.86,2.86,0,0,0,1.89-.52,1.52,1.52,0,0,0,.62-1.22,1.13,1.13,0,0,0-.54-1,8.76,8.76,0,0,0-1.9-.63,16.92,16.92,0,0,1-2.83-.89,2.7,2.7,0,0,1-1.61-2.51,2.89,2.89,0,0,1,.34-1.36,3,3,0,0,1,.91-1,3.51,3.51,0,0,1,1.18-.54,5.59,5.59,0,0,1,1.61-.23,6.26,6.26,0,0,1,2.26.38,3,3,0,0,1,1.44,1,4,4,0,0,1,.64,1.7l-1.82.24a2,2,0,0,0-.71-1.32,2.69,2.69,0,0,0-1.68-.47,3,3,0,0,0-1.82.42,1.24,1.24,0,0,0-.55,1,1,1,0,0,0,.23.65,1.58,1.58,0,0,0,.71.5c.18.07.73.22,1.64.47a23.4,23.4,0,0,1,2.74.86,2.86,2.86,0,0,1,1.23,1,2.73,2.73,0,0,1,.44,1.58,3.13,3.13,0,0,1-.54,1.75,3.48,3.48,0,0,1-1.56,1.27,5.7,5.7,0,0,1-2.31.45,5.17,5.17,0,0,1-3.26-.89A4.12,4.12,0,0,1,718.08,196.67Z"/><path class="cls-4" d="M736.48,199.94v-1.38a3.41,3.41,0,0,1-3.06,1.63,4.29,4.29,0,0,1-2.41-.72,4.76,4.76,0,0,1-1.7-2,7,7,0,0,1-.61-3,7.87,7.87,0,0,1,.55-3,4.24,4.24,0,0,1,1.64-2,4.34,4.34,0,0,1,2.44-.72,3.63,3.63,0,0,1,3,1.51v-5.42h1.85v15.11Zm-5.87-5.46a4.74,4.74,0,0,0,.89,3.14,2.64,2.64,0,0,0,4.16,0,4.6,4.6,0,0,0,.85-3,5.13,5.13,0,0,0-.87-3.3,2.65,2.65,0,0,0-2.13-1.05,2.57,2.57,0,0,0-2.07,1A5,5,0,0,0,730.61,194.48Z"/><path class="cls-4" d="M748.61,196.41l1.92.24a4.66,4.66,0,0,1-1.68,2.61,5,5,0,0,1-3.13.93,5,5,0,0,1-3.81-1.48,5.78,5.78,0,0,1-1.41-4.15,6.05,6.05,0,0,1,1.42-4.29,4.81,4.81,0,0,1,3.69-1.53,4.67,4.67,0,0,1,3.59,1.5,5.94,5.94,0,0,1,1.39,4.21c0,.11,0,.27,0,.49h-8.16a4.22,4.22,0,0,0,1,2.76,3,3,0,0,0,2.29,1,2.88,2.88,0,0,0,1.74-.53A3.56,3.56,0,0,0,748.61,196.41Zm-6.09-3h6.11a3.65,3.65,0,0,0-.7-2.08,2.86,2.86,0,0,0-2.3-1.07,3,3,0,0,0-2.15.86A3.37,3.37,0,0,0,742.52,193.42Z"/><path class="cls-4" d="M765.87,195.93l1.83.24a4.68,4.68,0,0,1-1.54,3,4.44,4.44,0,0,1-3,1.07,4.69,4.69,0,0,1-3.61-1.47,6,6,0,0,1-1.37-4.21,7.7,7.7,0,0,1,.59-3.11,4.1,4.1,0,0,1,1.79-2,5.34,5.34,0,0,1,2.61-.67,4.57,4.57,0,0,1,2.92.91,4.13,4.13,0,0,1,1.45,2.56l-1.8.28a3,3,0,0,0-.92-1.66,2.35,2.35,0,0,0-1.58-.56,2.9,2.9,0,0,0-2.28,1,4.8,4.8,0,0,0-.87,3.18,4.93,4.93,0,0,0,.84,3.2,2.75,2.75,0,0,0,2.21,1,2.56,2.56,0,0,0,1.82-.67A3.28,3.28,0,0,0,765.87,195.93Z"/><path class="cls-4" d="M776.78,196.41l1.92.24a4.73,4.73,0,0,1-1.69,2.61,5.68,5.68,0,0,1-6.94-.55,5.78,5.78,0,0,1-1.4-4.15,6.05,6.05,0,0,1,1.42-4.29,4.81,4.81,0,0,1,3.69-1.53,4.69,4.69,0,0,1,3.59,1.5,6,6,0,0,1,1.39,4.21c0,.11,0,.27,0,.49h-8.17a4.22,4.22,0,0,0,1,2.76,3,3,0,0,0,2.29,1,2.88,2.88,0,0,0,1.74-.53A3.57,3.57,0,0,0,776.78,196.41Zm-6.09-3h6.11a3.73,3.73,0,0,0-.7-2.08,2.86,2.86,0,0,0-2.3-1.07,3,3,0,0,0-2.15.86A3.37,3.37,0,0,0,770.69,193.42Z"/><path class="cls-4" d="M781,199.94V189h1.67v1.66a4.42,4.42,0,0,1,1.18-1.53,2,2,0,0,1,1.19-.38,3.59,3.59,0,0,1,1.9.6l-.63,1.72a2.76,2.76,0,0,0-1.37-.4,1.73,1.73,0,0,0-1.09.37,2,2,0,0,0-.69,1,7.48,7.48,0,0,0-.31,2.17v5.73Z"/><path class="cls-4" d="M787.37,194.47a5.65,5.65,0,0,1,1.69-4.51,5.1,5.1,0,0,1,3.44-1.22,4.92,4.92,0,0,1,3.69,1.48,5.62,5.62,0,0,1,1.44,4.09,7.3,7.3,0,0,1-.64,3.33,4.53,4.53,0,0,1-1.85,1.88,5.29,5.29,0,0,1-2.64.67,4.92,4.92,0,0,1-3.72-1.48A5.88,5.88,0,0,1,787.37,194.47Zm1.9,0a4.68,4.68,0,0,0,.92,3.15,3.06,3.06,0,0,0,4.61,0,4.79,4.79,0,0,0,.92-3.21,4.47,4.47,0,0,0-.93-3.07,2.92,2.92,0,0,0-2.29-1.05,3,3,0,0,0-2.31,1A4.66,4.66,0,0,0,789.27,194.47Z"/><path class="cls-4" d="M800.33,199.94v-2.11h2.11v2.11Z"/></svg>